<mxfile host="app.diagrams.net" modified="2024-07-12T13:36:22.077Z" agent="Mozilla/5.0 (Windows NT 10.0; Win64; x64) AppleWebKit/537.36 (KHTML, like Gecko) Chrome/126.0.0.0 Safari/537.36 Edg/126.0.0.0" etag="7mxv1JmXSp1zxZQ6AKT-" version="24.6.4" type="device">
  <diagram id="C5RBs43oDa-KdzZeNtuy" name="Page-1">
    <mxGraphModel dx="2066" dy="1145" grid="1" gridSize="10" guides="1" tooltips="1" connect="1" arrows="1" fold="1" page="1" pageScale="1" pageWidth="827" pageHeight="1169" background="none" math="0" shadow="0">
      <root>
        <mxCell id="WIyWlLk6GJQsqaUBKTNV-0" />
        <mxCell id="WIyWlLk6GJQsqaUBKTNV-1" parent="WIyWlLk6GJQsqaUBKTNV-0" />
        <mxCell id="zFf3xXaIBMx__n7ub1SH-22" value="" style="shape=image;verticalLabelPosition=bottom;labelBackgroundColor=default;verticalAlign=top;aspect=fixed;imageAspect=0;image=https://www.onda-dias.eu/cms/wp-content/uploads/2017/10/sentinel2.jpg;" vertex="1" parent="WIyWlLk6GJQsqaUBKTNV-1">
          <mxGeometry x="390" y="80" width="157.89" height="150" as="geometry" />
        </mxCell>
        <mxCell id="zFf3xXaIBMx__n7ub1SH-25" value="" style="shape=image;verticalLabelPosition=bottom;labelBackgroundColor=default;verticalAlign=top;aspect=fixed;imageAspect=0;image=data:image/jpeg,/9j/4AAQSkZJRgABAQEAAAAAAAD/4QAuRXhpZgAATU0AKgAAAAgAAkAAAAMAAAABAF4AAEABAAEAAAABAAAAAAAAAAD/2wBDAAoHBwkHBgoJCAkLCwoMDxkQDw4ODx4WFxIZJCAmJSMgIyIoLTkwKCo2KyIjMkQyNjs9QEBAJjBGS0U+Sjk/QD3/2wBDAQsLCw8NDx0QEB09KSMpPT09PT09PT09PT09PT09PT09PT09PT09PT09PT09PT09PT09PT09PT09PT09PT09PT3/wAARCAE8AdoDASIAAhEBAxEB/8QAHwAAAQUBAQEBAQEAAAAAAAAAAAECAwQFBgcICQoL/8QAtRAAAgEDAwIEAwUFBAQAAAF9AQIDAAQRBRIhMUEGE1FhByJxFDKBkaEII0KxwRVS0fAkM2JyggkKFhcYGRolJicoKSo0NTY3ODk6Q0RFRkdISUpTVFVWV1hZWmNkZWZnaGlqc3R1dnd4eXqDhIWGh4iJipKTlJWWl5iZmqKjpKWmp6ipqrKztLW2t7i5usLDxMXGx8jJytLT1NXW19jZ2uHi4+Tl5ufo6erx8vP09fb3+Pn6/8QAHwEAAwEBAQEBAQEBAQAAAAAAAAECAwQFBgcICQoL/8QAtREAAgECBAQDBAcFBAQAAQJ3AAECAxEEBSExBhJBUQdhcRMiMoEIFEKRobHBCSMzUvAVYnLRChYkNOEl8RcYGRomJygpKjU2Nzg5OkNERUZHSElKU1RVVldYWVpjZGVmZ2hpanN0dXZ3eHl6goOEhYaHiImKkpOUlZaXmJmaoqOkpaanqKmqsrO0tba3uLm6wsPExcbHyMnK0tPU1dbX2Nna4uPk5ebn6Onq8vP09fb3+Pn6/9oADAMBAAIRAxEAPwDUlljm8uaORZBE3JQ5wDwf8fwqtqenRXuwuWWWI5SRT938DwfxpmmvbQzuloTHkblZDtYex/n+NXPterFDtv3lAJBSU4x/wIf1r0FUcr3SaZwuKXW1jCjup9N1BBeDzI0k81pkGMKw2nI+oHSt0TJqc8awndBbnc7dNz+g9hgGse+klt5I5GW4gdiVZixYHI45+oH51o2diJLNptLvZrfcd0hEmVJxn5vTvyMViqkotrSy1sy+VNX6jvEML3GmARnDpMjgnsQf5VUmvXuBvjaL7RLHuwT8sMfXJ9SSOlVbxGNhczagbuMqoaFBKWUn1yepz27CpdK0xzAyTTvvA81yj53AjK/iOfyqJ4iVSbjFboIwUVdvYdZ2WnzCaK+gZXkKPBGHOXBXpx06E596zb3wtYW7eV9oeHC+aT97GOO/atiwN4RaSPdyt5ke48gbVBAIzj3zSXD+ZqUWVmkikVhGWO4sQRzz0H+GayjSSi+aN2O+ujKFrYaxa2aGC6gZMFlEybdo6846Zxnmnpqupxxm4ezSRrhVRpEPRiOPl985rXit4po1svPUPct+8DHGFHJ/PgfjTpLOU6xcZjBitWTaFOd8jKAAPoM04x5ZPVrUbu1e1zLh1aJNKFqEminwIvJmjIJznketS6ZLbW8jvPeQA7iEUuASehJ9DgdKgluWjuZUUbpVfEko5w542j6c/kTWrNpttdC3g+zxFpZUjLlBlR1Jz64Bq4qTqOV01FaXJdkrW3FjMkdqASp80mVgOfvc/oCBU+j5/tUzRnaLSB5OOcE9Ovrx+dUr3RbDzne3hMAZiQInK4qC3d7XSp5lvZ4fNOwnaHyi8nOe+AOnrRVoR5E5RV+6CE3d66C38pmnnCOrvHGIEOMZd/8ACq/htDceJ7h4QWS3Xy1xzkD5f/r/AI1UuJpUkQKVM8reaVI6MwIH4gH9KuaCj2bho4yPMVgWUZC7eP12k5rgXM2rN79Ta63sWtXv2GlXEhf5Li9GVK9VUFeD+Bq9LrEIsrozxMI4rW1tMoc99zfmCKyNbkf+xrCyPK+en9Sf5mptTvbWXSpVgjXzbiR2yBjHG1R/48DUVeem/eWrKTT2KumWDR6V9p3ACW8hXb9V3fzYiuh8V6Zc2dtBdSIqxiaPJDfd7c1nC3htdLspJpRDE1yztIxPygMQD+S/yqW/u9XubWG5uNz6es8bxW0oBM3zcbx2B67fz9K2o12otq22xDgm9TFjuGnkkYhli4YsVx9D9DXQaVb3X7xvKKsSrBepAxxn3pJb+1utfBuIN8awIsqQ8KZFz69Qu4j6ikutSMs80NncPBalcTzN1UD+Ae5zjPb61vhq7tzNbsmcE3a5kX90t5eLDMu6CG4d2dTjcrHJA+hDcj0xW/rFhJ/Y175Dh45bd13LzkYqi7D+0dInkgiELMLdokPATHyLjscE8+prd06G1Ns2m3M4jkgL283J+bH3Tn3Ug0qc7SlFrfoDjdJ326nFeG75igRwMyW4Ucddo2n81wfwq3f2+j6ro8cF1O9tdrsjfPR1BwdvbI64Pp3rJhB06fS5lPBXJx7Eo3/oH61N4p87TX3+R5ib8suM59xXJyXptp6p7GsW72sXL3wrqHhSHZHcpdWt4RCJMAY7rnH866K28Qre2cljrNqyyJ+7kaPjB/zzXDxCfUbKJrbUZPs7HeIJWyqn2z0/Suk02Yu8ZuX3NO32W6Ev8Lj7jhv0z7iueFONSTT+ZcpNEMts2p6TNZRzB5bVsKpGN237v4leKuaZdL4j0qG2u2xNbgICBjIH3Tj6cfhU32J9I1ZfthaKOdfLDhcguORn8Mj8KyryI6Fry3e4PZyjczRHPyE4OPdWwfxFOdCdBuUHs7oSmpLUfe2c+ganHcDLRyncGAzkgYYfioyPcVb8RTnVYYb113yRR4Z06MnUNj1B59wTW3dRRavYfZmlXEuGguOwccgn0IP51gaV5uZrYptliJPkntg4ZR9D+YIraE44mLWzf5kNODvujqfCGovqdq8Vw6+bAMHA6g1leKdNt7fzIbp2Md6NyYH3ZB/SsSxupfD+rLJCSEPManoV7ofp/Ku312aPUfDsWo20SyNGwkCv0HqDWSu6Th1W5rBq9zypLeWzBhmC+WrhCQencfgeef611+hnzvEMBuJFZbe0Z1bON3GB+Iz+lZ+pWsdxDPJhQ6BWDEev9KybKWSz1NWmdlMYwr9dn19RXn05Kbv1QNW0Oz16FNYsN0KsJ7LYkT56ueox3A4qlqsza1eQWeoYtbpBkNnKM4/iX1Ht/wDrrXtpi8A3IizQzhSiHOT94t9DxTdV06LUYD50YO5tsRHOHPJYfSrpycE2xtXZSsL57K1lcBQ0Q2vAeoz/ABKf4lPvUEaS/wBs2H9nOsuyN2QngLkHIP51T1qK5s44Q7lzBlI8jkr7HuPY8g+taWj3aXsemtDI0c4Z4SygHtkA+o7V00qadP2nVktu9ixolwkjmXJZkiCtGOocZ4+lXIdWcafM08W12kZkz/d9a5qGO8sZr5yXhvo/ljbGVkB4x9ec1pXs7f2DBZ3kflX1pxImc8Y4P0OQa5npd9iuxQh05rljqYIxHJuZc4zjp+NLdxv/AGYHEZ80NtjA5znvUqW80dgkEZOZSJ5AP7o6fn/SmaPIz6e8t07FfMd4wTnAHesHO12+1h+RWt7qOzubOyfLC1B4H8Uh9PxwKs3aIbiRpiwgibzJ2PG7ByFH1P6CrcFrDvivJogssS4Vf9tv6gYH41FqQg8hkunHkxfPKw7k9v6fSsHJXSW7Hay1K1rcOZ5tUZcLcLtjU/xVdtZrl78W8aEyopeR8cKTWZpl7Pql4175AFrB+7tbccbsf0HUmrtnJeLZTSXODFcyM0hT70x6BF9BWzjZ23sQtdShcyNZQvDYfvJbtsPJ18w+ij0Hr3rNs7m80c3cEDJvuAEkyM9P/wBda94TYfPIUW/ZOW/gtV9B/tdv/r1i6bYS3zlI1PmMcvM/SNfX6mtKcnGLbG9HoLp0cE1+ZJleaVWykMX8Z+vYe9ax864nuLl5YhI6+XPc9Iol/uJ/eI9eSakuDpfh618mRzvcfNGDiST/AHj/AAj261gi4uPEepRx/Mlmh+WKIYCj2HqfWmlKpr0Jvb1LF1eNb6bLa6SCls52z3MvJk+g6AfrVTRZb6LUvI0YpIwTaZmX5U9WyfStq80prraJ/LttOthwpbCr9T/Ex9BUo1yyisGi0mzURqPmlm+VWP07j2rW6itFdist2RW+m+XbPbW7k27Nvu7uT5RIw9M8AD8zT9R1W2t42+yI91Kq7VYDEaD+ZrGfVoZnE2pzS30gPyQR/LGv9PyzSR6/e3k4tre2t0RzhYlHT6mhQk90DZXtbuKyvftF0rNK3IVAcmtS5j8z/TNclNtbvzFapgyyf4D3rcsvCkFvi61PVIRKOkdogfb+PPNZHiCz0y6uUj022ummDZluLiQsz+wH/wCqtuVpauwXdivqOuWMtsis4ZohiKGIFgn1buayf+Ekvf7i/wDfNXdR01rZAZ1S3z0XGCf61lYj/wCmv5URSFqdReWE7j/WiQqdy74wcn0yOx6U2yjk4MczIJBuAQ5AI6ghu/49qk0y6tblP9HzDKThoSf6H8OlPubW4065XZGsouGLqAdu1wMkc9yAT+Br3+eLtNJ+qObla0JrqOW4sJ47mMhQu5Zohu245yVz2IzxmqNu6R6feTho5l2YSGF9jHuHbPOB/nmp31pXjWJkFsVkLiWYEbRj8mPJIH51X0S0ii1W4E0ZMm0SRCUhjtbue2Tx/KsKydWaUXo9NS4+6rtD0umexMt08F3I6bAmcbc8YHufWq1jNLYi0uIFd/NQxSK4ypK9MEdCcHrWzc2Sy3vmCJUgUExqVBBY/eIHoOlYjx7IbqK2hxPbT7gyuQVUfNkD8wPrRySp2la3RCundE4uY5vItM7PKZ1cbsN82cL7joDV2N5H1u3kfiN0kWJR0CjGD9T1+mKp3WmfaIJvs8nmKpMwZiCQNob6gk5/Ck1F72O8smWZp/NhdQAgDAYGT9cUqVSabk1daXE0notC48SiR79sCJgVX/dU/wBTk1FYXUo+0kBhPLLiJem0lev4Cp7aWLVYUjhO21ibB3Db0GTnPYcfnTbEq+pXrqDgShYyeMjaP1PFawaqzt5ifuple4tRZQpbxsX8oB3Y8lnY4z9cZrSt7ie5vGxtMduoLYGOWP8Ahx+NQ38Ty2vmxjiW6RCT9f8AAZpdJhuo0b9yx+0/vi2O38P6Yq1CF7LS4rytfsaN4bd7ZuHjcjjuM1iXVqLm9isYXVomYIpJwNqgO5/9BWtS5SXfHGY2HBdsjoF/+uRXPzFri2j+zkl5SIFbrksd0hHsOn4UsU+VpJ3Q6equ0O+xtJevqAjLIsbTAjsoyo/Mgn8Kt2aSxWscOGBdhEeOgAy39fzqK1821hljBdVceWFyRleg/mT+NWrC6mN1EN4LJvb5hnlzj+QrKKldKy7/AHlO1mR61E0z2+0Z2ylsdP4TWRfOtnDbqBuYMCVAzn5hn/0HFdR4gkuLe5tUa2DyofMMcXWQHj8M81hJEU8Qwy3KrJMsUhKjhYxtIwvrgsOe5rnxNVTqu610SKhFpItWEV876c07/L5mYbUfMq5BOT6sePYfrV3xHco8MFkiyw3AkAO3pnd80n0BAArSvdRhtL2yYxLbvBHKSv3ifkwCMdyTj6msa5huZYJLi5mK3sjxCZVQEQjcNqj2Ax9TzWdScbckVbvctJrVu5Fa21x9tSytpU3rGVZgMlFyD+Lf41ctdOV7m4hUKlrabWcKerY7/Tr9auJFNp1zZrA4lMkkigSR5yzLyf0z+FaFpYWAm1FDIbeRHVVcnBkJQdfqecVKk4z5YyHa61Rzt6UudJllwsc1rIJApGGb5h+oGan+ziy1K3ltb1zFfR8FxuG8DKg/Vcj8Ks6jZyQ6bdrIm/IJV1Gck+nrnBrL06xvL7w/I8bSNLYv+7XPCsvzA/iDitrqc999exDula2xl3ERRI/OX5rW9kRyBwVc7v6n860rLVrOO8tZLzdI6/JIrj5SuME/UYBqC4SS6TUpo8+VKkdwMjHVev5riqIs7nU7ofY4ixIEnPy57HGevPp61nXhFJu+jRVNu50M0Xhu4vILm2m2W8kbBlj58t855A7EZ/Kq+ywGpfZkmb+z7tfKklYYG7sR346Z+lcd5d1YX75tJEjEhUuoyv8AkGt6wuJrqF7OaRWST5fnGCp7EH2ODXLRi07pms9tTqku57vR5rO5cSXFo38feRPmXDejD19abrWiW2o6Y97pUmVWPzWhzzsI+YD8OfqBWbb31zZvDfhB5bYtbpT8wDKcA/nx9CK1dMlWEz2wRg1vITGyHojfMPfjJH4V2c8mkn16GNkY3h+W5KSaflfPtxkK3Kyxnp+PI59CKS4vn07U4rwIxYOCyv13DjHuGXK/gtV7rzbPUklg3LLCwRcfKWjPKj+a/gtdNeadDr2mx7XV2kTfDIBjzB6fUenUYrknRtJOOkl+Jaldd0S6nolr4h00XGnONzAOnHIPb/CsLSbzUF0+901BiRz5c0RHKdiR/KpfCuoz2U82m3J8qe3JZCR19R9O/wCNaXidImtYdat0MF7G6+ao43r6+9a6T97qtGOOjRmmFpIxbuhUmEI2fbj+lZi6dcXg+0W5VJLa3MzMfVTj8/at2a/a4miuJFQG5GVZPu4Hb69fyrLlSUm6tI2275QDg4yrc4+ma8lw5K9ujNpoZpFzPGk17aRqZY1PmwgZKqR1A7r39vpXYabfQ6lFYp5gGYwAw9Tx+ZxXLXGkXdjqsMNnKBLECYJQeD3ZCfQdfxqxotzN9mv9QsoFdo2BntQMFT13p9PTv7V0Okp2Xnr6GabRoa5YPHos9qdzm1mJVj1IPP8AWsXw/CyaxCp3RTMcxsOefcd67NdTtNYinnt2WW32KxI78cj69qguYraZLXULEKwU7gQP8812xmoxlC2nchq7TuZGsanKlvdvOgEpKEMoypx/I8dKf4sIbUo5YkT/AE+2jAcjkc/1BH5VY8T2IEVvaqctOQSx4rI8Qh4rC2CyOfscIVg5z8xOML+FcDdozT3uXbVFqK5WGC4uFYuXH2dVHZVHX6d6y/Dpe8LI/KLgAdgo5/U/yrT1LUY5fDVlDawhLsw7JVxygx/Xr9KZo1otjpqQbsyzfNI392Mdfz5Fc1ZKEEtyk7sTUZd5hIl2JuJjAHLkdT9Kydatrm4hgs7bMjSPukYfxN/goqee4N0bq/ZdkKDyYU9B6fU1r3On3FvodoLfb584ALdgnU89h796ypxa97sD1MSy+16ZMvnLugRcKqDIPb8c/rWvNHLYWSTAf6Vtwqk5EAPU/wC8f0qz9pitpBNcbfs1tHuBA6t6/U9h2HNcJqXiG7u79pnZkjY4EQPAX39T3+tawXtGm9hOyN65uDrbwxQQA2dsM8nAkfu7sew54q7Lq9lomliSNf3WfkbGGnf1HoB/e/KszTpLvWJoY5bZodLQfu4EGPPb1Y9x3zV3UtMttRvD5DLcXUQwzE4igH8uPQVo0pSs+nYXmcVc7rzUmu7wn94dxUfyFa+mRz/ZZLrf9jsU+XceDIf7q+prpNP8NabbZudTuY0hUbmmmYKG9lB7f55rI8X6rpmpyW9vpCStHCDmRxsjA/2R/WunWS0VkS9Cxo2j3WtyCf7O11FGcKJH2RIfc9yPQA0a9Zafb5S41RLu5HCWVlH8o+pHp71gR3eqXkcOnrPcParwIojtUfgOv41ZuNSl0CB7az08W8sow0zjc+Pb0+tVGMVp1Fd2LBTSY9PjmuoxAVHECHdJIff+6PrUGlXOnQpNPcwESPxHGOij3NQaZpjFxJf7djjdtU5at2606K9gSO1tXJ6kEYJrVU3IVyGzuGuLMB9QitLJDk4HJ+lTReJLe2Ih0u1baODczrkn6D/GoZrabTYBusokY8KpOWP0FaukaDeSxm61cQ2NtjKiRgpNXKlFbtvyGmzn5bprm6aR45LqRuruP5e1O2Tf8+DflXQ6fN5OoebKlpHYITgjJeX0xnnH0Fb3/CTaZ/z7n/vg1jZdh/M871HSbq1JuZpmu4sgGRRtkU9jx19MjBrSsNTkvLOazut0+wA7guJ4COQ+3+MA45GD6itWKOCVJY+GilGGwcj04qK1ht9ShMNycX1odouYztcj+FwR6j9Qa9aNN83uu1/uMW1bUj0i6h1HT5I9qMsDYK4yMHkdewOR+FZ19bLa6haT2pNurMY3MYzjPseMdai1MX2l34uGctGw2tcRRgbv99ehPvxn60y51GK+02aNyElxuRgeCR+oJ9D+Zq1JKLhPSSJs29NmbclzeWqRxzJFcJvwrp8jc+oPHYd6zQjWuuXcQ+d7mJZAD0LdD+A/lV+1la60qMSKyySRgnIxg+v9ap3EhTUtPnb5XkUxn6n/AOvWs7O0ovRkq6umtSHS0ZBd20jFnVdhPuMr/ICqVuW1W9tIYZmjjWBkIAJ7Lu/M8fQVduN9nq0ixgGW7RBGp55zgk/Qc1HpryJDaJCF82OWaM9u4+asptK0Oz18xxTd2WJcSTNDHCzQ252O8HHzdxjuBgcc9BUaXckcl22BJukA8xBgj5R1Xr09PSt7ZDF+6jUKoAzjuccn6k5NYsUTSaleGRSEEuVYHBJwB19ua1jQcYxcXZyZLmm3fZCajIZrO3jt5f3bSr0PXAP61ox313FcmNZ3EcUaBRnoCM/yxWTfxLJqVskP7uRiSzgdTg4+vT9amt75Rc3DXXyKzhFfHyjaoXHtnGeaba9slJeQtVHRl291aaL7RLPMWRoxDyBwDyfz4rMsJZLZ4WUKnlR7YlIztLZ/UKSfxqa5t0ubZHkbEUR+0TLnqD90fjn9KZIfMmkkK4ZASfZmHT8BgVjOEZ1G0tNi1Jpbl59TnknsoGWIojB87cZ2qev51JpOotz5dpBNLcPtjVztyFG38BwTms+baLnJ6JBnA75OP6VfisFstNE+4iaU7EI4wg5bHoB098miUIqo0ui+4FJ8quUJLq4OvtJJN5sjDaWXIA64x6AZqRHiuPFaecFhiaNVOW+6oYH9Qh496qwjfqEkh+8sqrj6qT/hV6a3WPUE3qrShkJXPorHn2+cA1xqMOVyWrbsjS7T12sRTXxuNYSaRGdFjYxMTyHz97nsOgrUeW3fQ76ZDdokYErtJg+Y24dT74/Ss1911rALlWjhgJkJIUKoP/1xwOuabq+qvqMNwkKlLeODHPG7HQkdM9foKv2f2et9Q5tn0Ne51aLUZLO6zPB5UihFI3YU5Bb6nP5VF/a0FvdXbTXEsoaVRGoTLSNtHAHt74qldFY4Nxxngqucbsc4ptjGn224mnMIuWYgKhyFXAOB+gz3xW/1eEZqmuurZHO7czN+KWQWUs0upW7TfZ2CwkZWLK9B6ntu79OlYuk3NxFrH2XTiskl1EdyrJtVSucEk+qsOBk8dKljs5bwyNcylIVBIjiOM+mT3J9B+tZZjWKwhuBkiJkmJPOQRtb/ABor4aLko9BQqO1zVg8M3v8AbE1jd7ZtsIlVVJ8rBY9u+GY9elZ0Wq3EVlpreSzG3DWxKHBOeMc9wyipbi4ayvLeZGYHlSFbGQf6ZxVZdR8nTdTsmt1mPmM0UgfiFmw2R/eIPf2rlqYZwvFa+TNYzvZ7EP22QvPG0t9aq7cxTweYCTyScZxz3Fafh/TozPJh1eVQCGXoQfY++RW5perW1zB9t0W6EmoIg863uQctwMgN3x7Zqa38Tw3upWVw9ssNxzbzq4yAG5Bz6bgPzrkotU566P8AA2kuZWMuXTJbOeS3H/HtfKVYEZw4H8yOfqKTT9aebULS4fy/tcQa0n3D5ZCOVP1ODz711mr77rS5f9GjZ0/eRPG4b515H8sfjXF6mdKuFjvdMM1uLhfmR1OBIOU57cgr+IrtaVR6peqMrcuzLGv31vfP5q2wieJTHOhPIDdx9Dg59qi0PURh9OmmMbEmSIYxtmH3wD78MPqRUWm2Muuag4RYopGi3L5j/wCsB9P8KzNU0u+06cRXCBJd6xh92RvAyhz7rkVnOEVZS+TEm3qjX8Sq+LXUo0Iu7ckSsowJU9fqM9Petiz1izmslsdWJeGVR5UgGQM9OfUVhW0V9qOnm4VWeNiVeM8gEcEH0IqnbTi1gbT50LCJt6Z7oe34HIrlqU6lGaqNXXkaQknp1HXkU2m6k1kG32sc2YmzwO/61LfSA6lsjPzXUQCYPU0mv6TcXMdrcwCU2txgKx5244Gf5VRsolubmFJrgQzWjHBJ647VnKnzVFJG72TOqvZW06ykgWJpJo49hx/COMn6npRa6XJAkeoaTMheSE+ardH9VPp6Zpts7Jo8k11NumupCGbHQE5/pUdnc28Unloksmeirxn1/Ot8PQvGUtTCpLVIz7hGlE1/og+zJMSsttngkDk//Xq3oupAafd21ozYChwrjBVv/wBY/WqHmu5uLm1jaOKJSki46EnFW7zbDDDHCrJdkgGTGAB6e9JXUnG2gXVrm1cNNdTWt3dBS1nEplQdCTyf0H61HrUNrdavbxRtvgZhPIB6AZx/n1p+nxxanBeGVyjR5JIOBkDH5Cqvh9odSvXlWXaW3SEkfwLwF/rXFNuSUUtWy11ZEk3261uptqxyw5RVJzgf/WGBS6RHNFpNzOy73V/LIxlmJ6D6DNVtPPmQvMkTNgvNIv8Ae284+gODVSHXZNJ0OV0lMl7duZAoGRFnjd9ah07t32W3qJO1mXba1gbULfQlBlklYvcMD/ql64+pqx4p1q3gsIbKKUh0xGwjOdqjHU/p71jaNJJo2nzaiEM17KmSWPEYPAz6k+lNttJ8q2a51NGlvJzmG1BwWJ/ib2HpQkkuXpe78ytiS5vJtTB8iHFog2xJty0rf55JpnhzQopJ5b7VtmyM4RGPGR1J9h+VXrm4t9K0eRHulW6xsYR9V/2R6f5+lcVm71FxbQu7RMcBd3H4+wp04ud3siW9bnU3/iW2uNVe0WRjYoNv+jDmU+mew+n61SFy2mXiW9tBksfMkh3ZIPYH6f5xS6d4SuLgBNPkAkQ4kuGGNv8Auj29Tir2r+H4vDVkbmwmmknbhpJGxuP9fw/OtlGK2RNnuyrFpV/cXM2saqivtG4PdEiOP8O4HoKydR1qyHm+RA1/ducCZ18uKP8A3UHb61V1XxLqGr7Le8umaJeBBEMAn39T7nNaui+Dr7UUEkkZtYWGQzjk/QVra2rYa9EUrWaQQteXGotFcSjH2e0XbtHpntUttY6hqb5S3PlA5MszE/mxrpf+EfttFGYYBPcnhTcHcfwQf1rOvhqsTm41OBpLVR8sTMEX8hTjdu6VvMlsnhvdP0lMSTLcyqORCMqP+Bf/AK607DxlBJAzi3Koo5OfLQf8C+8x+gFZtna6lrFuPK0seRngJHtX8z1rct/CV6UBuIre3QDkyMDj8q6o0+dXlISbWyOOv9YlvtSM6Tm3jB4ESEZ/E80yaYX0gafUGJXoHJJ/Wu8TQtFi/wCPnUYpCOqxKD/LNNfS9AXmHSZ7s/7ZIB/z9K0UFFaajs2cVHb+YflvyxPHAzVr+zJf+fuX/vmunaaaKMx2Wn6Xpif33VSw/lz+dVvLu/8AoZ7T/v0v/wATWU7t6ILHL20TWxS4sHYROdpWL5Ax9lP3W9jww9DWj5jp5eoW5WSNQRKUG0le4K+oPP58Vmi4udMnLX26a0lXbKpG7Pvkdx744q2haF/tlhKssTDDMxyrDsH9D2DfgfWvQjBNXWjXQxbe250FtFBq8EsLt+7kjIwRg89/w61yNtpNxEkysvnmIkywkZIAOCy9+D1A55B56V0mg6jGJHs1yuwbo0fhkHdT9D36EEVHq0htdTMkHEsg8yPHZxww+jLj8RUVJe2Sb1a0Y0lEw7bUp96wrJGYolCxgHO5evXuRkDtVm+m87TUuQrCW1mDMjDGB6j27VXunjSZbtIEdZ1+ZSMZYH9Dgn8qlvLOaXT7lIGYCM5eFzkrjn8v85rFc8IuCfoU7Sd2TCFrbW7SecbjcOyGQ88lcgD0AwB+dFtbfZ9Ym2sMNLIQo7f/AKyDUYE99ptrJbzec6PGVjbgo/19PrVoSpNr8ciH5ZC6rgegyP5mr51KaXmTZpMvuP3xA7txUcR+1id8AbJSi49Bgf41LdJ+7EQJDySbAR255/QGqQkMenyJFw88rqPbcxH6DP5V6UW/d7IxaWvmQoES/trl2BQvJJn1AXA/p+dVopljsLgkgrIzZ49Tj/Grd7bLLc7Vz5cUC4A7Zcf0WsrDfZrVHOAy75T7dT/M1zSfLJta2KSukJZSyZuCFAt2kEkkRPRV5UZ+rAY9q0eIrZfMIMkoLEDjc55x+HT8Kg0pFitvNutyrIxu5WIx8mTsT3JPOParkkMhf7ZdLtlk4WPr5Snt9T3P4UqEGotrqE2m7EMPBuHuGUMwQZ7KM9PoK0tTYvbRMJD5eCQvTEY/xOT+dZN4j5kbYTGpyV6ZwePzOKs3jyXGmzMcB2ABA7ZIGB/Ko/nfRDfRdSrY3CEy3ExYbpRI20ZOPQe/IH41Z06STWtQmkk2W5Qu0s3VYY8gAe5G0/UmmW0KSo+WVEUhGdTkDvj3IxjjqajtrBhJJBBCwPQsRjOSTz9M151CXNKLbtY3lonYa5t7y/2BhDZ28bsHIw7jPGfViSB7UCT/AIlVxuDMWiKjAznio30uWTVYbTGJTHkKOSxLdv51tSaLbWWm3URvxLO8T5EZ44U/KMdvU9/pXRTqpN21behLi3a5GIUTSpn3ieeeFcyFdqoo52pnnGQOe+PSn2MYfzWRBlpSMgY/yBT9Jdf7KBuIzJK8eFycBVK/5NP0XUZIbKMbFaNmJkKjJzn7vPY4H4VvSbotTs22upE7SVr6ItixmEzKpJiGMZ459a5+UrboLN+c74WHXaN3t14PSr17q0kjmMSSMWJPB6/T0H+0ePrWbZSNb3IkwvmRykbeSoyPfqeevtWlR1Ekr69X6kxUddCxZWDXkdsZwwR5Dbt/eZtpGSewBA+WpbK8t7XU5BPApZrRQy46SIxU/nUdzczJcEszeU9xHMAOBuztb8eQfxqG+jNtq0d0o27hnB5xn5T/ADBrGVKSV5O7T1LU1fRHN6tql9DDJHbypbwFmwoGHOTnA9gDSaBeXMzlJpnbPGSc1X1eJpJpxhmdTvU9c9jVzwxZ3L3X/HtNtPIJUisYU4e05ZWsdD+C63OtstT1O0K3FpKOfvR9AT/KrOhXdnqL3+jajb+X58hmt2AwU38kD6Nk/jSx2LxySRuhQMvmrnj2P64/Os3VrdU8m8XDi2b95j/nmeD+Rwa73RiqalF6o41N81mtGbGj6NPd2MyKVa4s52hljPBBHOR7HNV9Xtrh1EF6ZSjr5fznlD1Vhn0P86v6bLe6HqqtuSaG+UKfMfJ3KMj5vUrkc+lb9zqFhqVu9neBUeRcAn5tvuD7HmuedaNuSqr22aNVDW8XbyOQ8N+IG0acyXMYaO4IiuVBwUmXjd/wIce/FaniKLTdRtzqVn+7ubbrHtAMyH7wx3OMke4rO1fSbePyLqJg0F+Rbzpkfu5hwCPqQR/3zUdpZXlqjwXMTFoTtkUjOPRh7Ec/nWUIQcXG90/vRXNJPVaosC/uNPRraAxtYXEYCu5ygJHX2J/nXG3OmXtjp/mXA/erOTg/xY5/Wux0hJ9NvZ7OOKO9hWLzo0Y/eibqBnurcVy+sXtzeQyRmNk+y/NGyjG5emf6VxKLWjex2U2mrHViS2NnB54ZSsWVUc5JNNtry1tjDMkb+cjhjx2//VXP6LfPfWYdicKNoBrSROp9a9LD0f3Wrepw1W1NqxqandWenSapDERsuAk0YAzlqZpNs1/oFxeXMoLRt5gGemOf5YqlqUMcumWlwBl0LJIfT0rPtjfadpl3cgBrScmBQTnnHpXFOm0m07tNplqWtmS2Oqk2txDGZC0rBiqDqD1/wq7bxnTH02JV3NcFiUB655/IcZ9q0LCyi07QDMIR53lCWXPJXPCj+tZlxcL58l/cERS3I8i2Uc+XH0LfU9K8uKlpJLTZG1uhYvmOk3TxQsbnzbba0aDgbjnn6nms6yt4LJL2TVrdlidhFCp5Yv3wO+B+Va32uy0KKJwz3gLCaaRuueiIPyzj2rItfE1tJ4h/tLUij7YyLe3ALbWJ4/Hvk/Wt3BxfKh2Lry2+hoLy6gcRM261s3PJOMB3/wAKrSeIE0eG6uL6BpdUu0/cpyW+b9QBTdb1HTbvUodskt9qjNnbGMop7KuevPfmr9zoVjYxfb/FV2I7qT5vKtzmQj0z+npThRcrOXQT0OAiRriQfa3ZEYklV5f/AOt+NdBo95ESbGCBreADDyxL5krfj/QYqvqV9pdxdRtZ6d9ls4jgqkmZJfqx6Z/Gtaw1W/vIJLfQLWHT4wPm8kbpPqzn+mKqa08iOZ7HU29vPFYpb2P/ABLoCMhpvmmb3wen6mue1bSrTTZ/td/rAIYfNJcHe7f7q9azxbR2aO+o62GuWOXERM0g/HoKz9mn3zuLaBnccGa8kyT+FYpNvfQLosW2q20MhHhvSxLKx5uZwGdvoO361v21p4n1OPfq2qxaTaEcqHCu39fzNc1bWV7byBbPDt1JiOAPyrXFu0hT+1rtAg5aESAk/lzW/wC7jq2S22XhaeGdMkxPqmo3svUiJmAP5Y/nW5ZXCSw7/D+hRuQeJbg/1P8AjXM6lr8UenvZ6Vp0EMGMNIE+bH1PNV7HxBIlksKX9urAYEc0rED/AICMCuiUoQSst+ok3c665utWwf7V1mx02P8AuwEM/wDjXIa3fWZvAPtV5fWy/elmOAT7A9qrSza1cSBs21zFnhYgAD+VRzx2N66x3bm2lHVVSq+sKWiS0BlnTdXtdKke4tEUsRhcx7wv4dM06bWNb1OcPcajOlsx6bQgx9BUSaVZJCVGoMVXoQc/pVG4SAOI1v1lIPCvmlJ3Ss7LyBM7OyksTAIY7W5lcjmZlAz+JNO/smD+63/f9K5L7a1rAMLHODwVUYxUn9o23/PlF/30KPZruwuXIbyG8kKQyZboVcYI/A0618PGz1IKk72q3ZIgkxuQv3jdT2PJH4ipn8ONcfvCwjuVPySAZx7H1BrQtrkXlnNpepI3mKBvjJw6+kiN3AOCD1GOa7qlRyaTW2zRMYJamFqO/TLyOO6hFvdIP3Dpyjeynup/unlc8ccVXtr8X8bRncLyI+ZGr9WA7D14yK6i4I1XTPsmqIlxIh2mQcbsdHH91j6evtXH6vp02kPHIJgbcPuilIw0Tf8A1/yOOlZqMo++nddQlZuxoanDHb2q3QG+zlZZCQPuN3/BlJH1rWhthfWAHmeXfWuYRLjO4Dpn1UqQfxqjpFyLjT5bG+VCWBO0Hhkbn5faotIvWj1D7HISJAnkvn+Ip91vxXj8K3TjJqXR6PyI1St2KVtcmxtWt32i5t5ShA7KW6j1AzT7eVYvsG9iGjnMJkHBAHA/TFXL2xWS51JWVcCAXSMRyCPlOPyFZFwk8N4PPG1ldJlK9H4+8Prtrmqp03ddGWnc6fzC83nFlZU3FSO+f8/rVa3i8xLf1jj3H6t/k/nVR3JhlkR2TcGbKnr+FaljtjtyT95jkj9B+gr0qMuZJPtcwkrXMu6mdJNQx0WEAj1ODj9Xqm8TJbXU3ASN0t92c4Ucfrk1cv7cSR3e18PcMo3A9Bux/JaiubaV9PtbHYyrdt9pYk9YxkD9ST74FcNebcrR3b/4BpBJK76E2mBr+6W4nGIIiPKT1I4B+gH6kmtK+iMoAzgKwYn2qtZSJGBGoChRgAdqtXV7FbxkPC0jMPlHTPf+ma75Wo4d97fiYpOc0Up74XKCAR4IbLHHXA4/Acn6mqbnzrYCYkLK2YlHHyjOWP16D8atIIEAiVxJLcEIHJwAOrn/AHR0z3Oe1RRxMLqSa4f90oLLkYwvAGPTgdPevG9o5xVKO27Z0cqT5nv0J7O/t7VhH9nyqS+YAT04PH8qhi1a5ktYUtgzTM4aRiuNzgcKo7+tZ8MgkdFIBkYkhScZ+voKtTSppSJDDN5t4wxJKD8sYP8AAn9TWfLGU7R1Lu0tR1xcXMevs0kxM/2cLI6n1PI/p+FSRSSRJMIxjdFIC2Ogxj8z0qLTrdrzWDGgyzRIoz25rQmESfaP3o8iJGAcjtj09Sa76EYwhyvrfUxm23dDIrgJp9vGrBWaFS7f3Fx1+p6VFbSXNzp8drbx7II3LPKw4Y+/rgdvzPalstMa60wXFyxSLCrGoPMhx/ID+dTWEjGy+z7wsRkPU4ABrWLdWUbqySFZRTJotIkMZMPO7q7nJb/PpVQWBQ3ZM0QEa72JPcdh6nitEOs0LWtnEWKgme5fkKuf4R2Hv1NVbmSKXFtaLi3jzhiPmkJ/iP8AhTqKdR8sXYE4xV2GuR2z6YjQTtJJE6uBjAK5Gf5D8qZ4huIZRa/ZoWUBnBJOcgrkfljNRYZ9NXcCfMXYMcknp0o/4+NPtJGGCZ0UsDyM/L+fP60pQTTSbd0NSaa06mbrXiO4QxpDYWyoxViyqSwwc5qnb+LdaN+I57iFF3EbYkUcfhTPE9q0dmyDO5GKtz1x/wDWxWDC/wA9tcDqw2t/vLx+owa5PZRjNNo6k246M9Q+0yTQQ3EkjP5ZwxY5+U8H+h/Cp5beOSOSJkXY4KsAOoNU9KK3NgUb7rLg1bjZvJTePnAwc98f417kYrotGjzpt9ehiCOSXR3t2b/SbGQKGPfbyp/FavRFbiFJV43Dp6H/AOsaiuAItTSTpHdL5L+zD7p/EZFTWvNspIAYZVseo4NRThaTT7A3dXIZhIZJIGbKSqWBPUN7H1HB/Cr2naxPJI9xqZ85418m4UHaWT1Hbg8/Qmq90p8oSKPniO8e/qPxGaJAiOlxwY2AWT3B6H8M/ka5q2CpybcVZmkKzW+pY8Q3qxT2lxp0jrLaElQy7dyHhlJ7gjv7Vn61qQj0lo9PiVo5UZQJVyYyeoz39vrVxLdooJIjiSMDEYc5wPT8OlPkis49ACzyR+XCS5hxtcORxz3GTmuOphZQV7anXRrJu1zktIhmSO3TzVQqzBkB549RXSkgIa5APc5uLpg0VzG4WRiMDB6fia6CzkU2yRLOZmQfMxOSfrWuFneLgxYqFmpIkubmY2y2kK7kklDtgZIxWxpjM1mlg0G6QSM8QboXI4J9gATWdZWNxqMwtbPC3LZYMTgADr+fStG3tofsVxJqMyLdodkUTEgg/wAR2jkjHFYV0k5RezFSV7MXyLhQv2m+VrOeM3N0VHQKcAZ9D2HtVe1mW7gkvbx4LezuXCxk4LCNfTPQe/vUWm+bqdgbGyVDYRuWvLy6GFUDsFz0A6A59TWD4j1aPV7u2sNBsc2MA2ebj5pP/re1eeqcr3SslsdKWp0L6npNkhuLeETyt+7ghfnr32jkk+pwO1cN4hj1u31mU3LQ2qqQ5ijAIQHoDjv7GumsPBmpxst1Jew2Ecq4DTMF+X0VeuaXUrDw/oewiC41W7k+cS3LbIvrtHJ/H86qMFH/AIJLlbYj0jXNK0vT7e9isJtR10Lgo7eWkZGcHP054z17VkXOua14qnC6hFDFIWJjSEYVV9/8SaSDUkF49xPZJcyO2QjHbGPwHUCtGTWtVvY2ghhggiJwVt0CD6bjzUOTtZL5kOTd2y7pfgq1Zd11qUZwMsIhvx+PTNOmn8OaRmKKzubpXblp58K2O+0dqhE13FZiG+1mO1gUY8m3G5j+Irnr37HJNmzRl5+/I2c1Eb63I0NXVdXjmAitLSCC3HJEUWCfxNZsmpscRW1kka4wWxuY/nV+3sdPuIALjWoEkAyFWNjj8hU1rrkWlI1vHZwXIB4mdCN1Xyx0aTYrsyoba5uXEdvcSFduWVARt+tWodFmkTdBG0m0/MyPirsOvKBI0GmwLu4cqGP9ap3E08zgWttJGxOSturCtEtHeOncOu5O/wDZoRVmhnjl6Hcc4p6abYXAzDJGQeMEU24tfs9mhZSblufLJGR9fSn2OuWVpHsm0tXKHJcz8Z/AdacJwi9Y3QOLa3KNx4auY5i9tICuchUbBFSDw/P9siEbTXEzDJB/h+pNakXiq1muRJa6RD5qjAJlNaVjqJuJnlm0qxiZuCzykk/nVyadpRhZArLRsxnlubCd7d/IbAywUYx+I70wW+najdRvA025TifoM/Qf1ro76y0++hJktVRhyWhkUVn28rachbT9NtrjHAZ15/Q1jJ2ezsNGOdAtI7l2M7KrHg8jFWP+Eftv+gg//fVXD4jvpZPKvLK1gDcDEDGpv3Hpb/8Afhqv2qX/AAR2OheRrXPngNF1LqOn1Hb61nX6Qal5flyFJUOYrhTgofb2Pp3rPa+nvc+XcrKinkEbGH1FLHC0Z3xnae6nof8APqK9SnT0b3RnKd3bYjuEuZJGspyLfVoTujYHCy49PUHoR261YBTVtNaN9wfO1lI+aKQevuD+YqSXytYhMNwGWVOmTh1I6Mp9vWs8vcaVerLcjfIRtdwMC4Qd/aRfTuOlRdL8hW7GddaZLYwC8VWNvESJoozzAe5X0HfHbPpSSiSGaCVnWSRiJrWdOPNx2I7EjjA7iuglkgjvRcIyvbXiiOXHTP8ACfoRx+VYwsYxujO37JDIQ8LHIXPdT2B4Psa55xtqUnc07+aK5mtJrdwUuI5LdsHP3lyM/QgiqN4iy2dgZGIkaLyMgZ5x+nQ1ScjTne1Ks2xhJFLjOQOeffGRmrRuD5boApEc4Az2BOcj35rRzU+ZPqiHpawkaOdKi29WjAINL9skifC5I7CnWV1LFax+WFyxMZyM4Gefx4p91a5QMDgscKR610pNK66IhtPRmTK8r3UUayg+Y24gn7vygfkCTWzpssuoXNzdTMPlCwRqOAqIMYHt3rATBv5CCArZBOM4UdfzwfzrX07dbQxk8b/mP1PNcuDV6vM3sXUdo2RIYpBqYSME7sk+2Ksi8Fzpt3JODIUAVdgxgf4kfpU93bR3FnC0DEySNlmHBY9BGPbuT6CqiXIhnNjJh4I22hYesrHqfoOB9KeKq+1k4J6BBctm9ysmLlJZ2AR5WAcgfLBGOiD1J/XFTyWzQ3IhuFEs0aK20cLHkZ59SM4/w61curf7RZShFZUQmOKKIcBurHPcgdT+HHSqVtcRw2VxGYmFw5Cl3OSAPvfiTxmuZJqXs/kyrq1yrcGztowluWe5lJaSTpsH90e/8ulUdhkkDYzzxTbjJnkdQdijBIHSrkVvKEicyCNR82FPzfj6V104KleK1ZDd/It6TLLa6lceXGzStDsz025z/T0q5fFJIxbWe59sLF3PG87ck47AVWupidQkKqYhFHGoXoTgZyfckk/jTBIsltduziILGQXJxng/KB3Jp00ow9pLfoglduy2LthJmwtEkZjGqhRtHQf40lnZte3axR4RTgFjyFA71No8X2yMPNGYbWGIb3ztAwP1JNNhK8GEyKrKCylupxW8G5uMY72+RLsk2yS8mWGGWytdyRqcNkY81uxJ7AenaqkW5Y2U7ctwcDpTrgj8uBRCmeTXXTopaN3MnN7iWEIEkkYAHlycAeh5pblBDZXEYGNpSdR9HGf5frViICG/c/8APWIHHuD/AIEVHqwJgDj+INGT/vLx+oFTKCUbrdX+4E9bPqZviy3X98QP9Ym4fUcfyIrgrIs6SxfxKfMX8Ov6V6VriCXTYJj0wMn2YY/qK82R1tdTOeithhXnYrSenqjuoO8T0fw5MHtU4xxjrWq+Sa5vw4WjJiLEhTge9dPj1r2KEuammcNZWmyneWpubWRAcSY3IfRhyP1qOwlWbzCBjeBJj0J4I/BgavGs9E+zartA+SUMw9u5/UZ/GlNWkpERd00W8VDbIvly2sgyqHAB7oen5cj8Ks4qN9qHfj5sYzVtXaYkyNGeOERyNuZPlDf3h2P1xSRyrv8AmRXBGCCM0Jbz3hPkRs+DjirEenT7T5MQnkV1Vip+VMnHJ7n6VjVqwiuVs0hCTaaRymrW839t3BW0nngmjCAJ8xV/4T/WrlrFLpotlvNjvNHsjit4vmYjqSRxmuo1e301tPmsdT1AJMULAWrnjHAU7fz5rL0GZNHIC2F3dSwxssUhjKfIf7obGK8N1OSbadj1Lc0UpC6Dc3V873VnNBFaQHZOQhMoJ4+vHpxmsTxNcQabrVx9gMxYxBSJpPmBxz9Poa0Jpba2vbi606e0Q3G17lpr7YkbjtsH3mHt3rMv9SsJXaS61qzMocuBb2rMzf7znk/nUSq8zvbUIJR0RXFzq2r2CW+lWiWlpEqm6beQrf7bZ6mujsbbQ/C7x3E14+qX2393HE3lRJn3759Tn6VytxPDrU5mudTv2AGxIlCqB+Z6VHbxWEMEgnW6mcHAImUY/Sp53YqV2jS1jxFe6lqDTh7eIxrsRIOqr357/Wszy5XjZ1nXA6knGfz5ouBp0m1rfTroKow7G4PzH6heK2LeykSzEtzpENtbMAIkknLvIT3HfNYya3uZWXQx7W1bUZDFbz/Oq5ZpSEz9OamSKOxEtpeJNI5/1ex1Cg/1rem8NafFZrd3he1VuFhEOWY/jWGlvNakmGJkib5QzgdDRTvLVJtIhu24+MDIiTT5JI2OdobcSPwqqbaC3vx50F3DF0ZARuz+PHWtCS/1B0a0guWSIkHbGeG/Ed6vLpF5qUMaW4uJpIhzDKjfn/8AXrVylLp1+4SaM2SytHmUoL+NW5U+SHLfkapCZ/MHLYzg7hmupOla/GqmezlhB+VWMwUD9eBUT+FVQgTavYwM3VfP3kfgKtQlH7VxXT6GK73OmZZoykbsGD+XjP8A9ar8WpX8MjyQXMqLNyzRnIP9RWnNpmjWVt5WpeIp5ojj93HAxz+JzUVve+ErGQfZodSucjjfIFQ/lVwai/f2JafRle3iVzJJdyLLG3JZhkioLrRLaUb7ULtP905rXfxNbRyH7P4btlTHDSyF80weM763bMdlZ2kROA0VuBj8TSg4uelmintuYUPhq6Mg+y2skrnoApGfyq7/AMIjrceJJp006LqftFyF/StKTWNQ1AiQ6nOyn+ENtH5CopSJMG5iDd9xGc10Om/s6EprqRQWdnEh8zWprxh1W2izn/gTVatri2tcm2DB+v75yf0GBUZ0q1vUDwkxSgcMhxVKUXllIEuFWeLpuI5rlaUpe9d2L2WhduJdYvnJTUYo0XoqRhR+Y5qt/Z2r/wDP7H/30/8AjTEurdJDtZ4sjvyKsfal/wCfxPzpTp077C5m+pLeQxXT78lJVHEiHBH+I9jTI7yazIW8UNGTgTIOPxHb+VOijGSSSPqKCGyeeOn1r1PaJPQxtfcukwTINwz3BB/lTL6JkH2W4b7RZyANHIeo+voQe4qjGGhJMZG3PKE8fh6VclumEEe5SFIzyMbc8flmonJSab0ZSTS01MOS2lsHa0uHP2aU5ikPYnsfr1pwlaTKuOXUwyfXt/n3rW2RSwvBcoJIXGCp7fT0rLNhNZOQ0gntHG0S9GU/w7v5ZrOdPk32YJ32IpfNtfIOWlidQYwRknsR9QcgjvkGki3DSbqZQRJCQrAjtx/h+tLK8ssD4O37PL5hUfwk/wAQ+hH5Uj6it5daowARLpHZkI6NjP8APNclnBrzTKvc2I7NDNbIoB3Tu4OexXd/7NUuoIbcozLlYleQgc54wP1NVtJvB9vst3Pl25PTOSdq/wBKb4h1NR5wg4lbEec4xj5j+PIFdUMR+4cupDj7xkQxEWshnjIklcRADtxn/E10QEdlAA5Pnsu5sDPlJj/0I/p9apabG3k2skjCR1iMhU9nbgE/QZ4qvcytb3MkIO9FIaRSc+Yw5wfYdT71kk40k1u/xHdN6l6SMlA1wxjgiAZYgcNJnnHsD1Jqnp0nnai0sjCNI+vljp/sj3/+uahkmNzCGM5Lyv8AvGxkn2Hv/Km3m6OSLy12RqMhAfuj+8fc1EYpNO+2427mxFrEtlO+3B8qPyUbHCA4J2j1Pr7+tZskMwnaAxs0uckAYxnnmrEpgSzheEFVU7xMTjaAT29yOp59hTTq8csLWtiJHMh/eTMMyTH+g9vzpUmpzbiDTSMnUblvtUVtvjZIwOIhhQf/AGY+9dDpklrbWEtzcIJJVAEUZ6E9efYcfyrFsdJ+3aysEzCONQXlYHOxB1/Htj1NXbl0vb0pax/KzBI1xjHb862p2u6cX5tifRsYRLNNPKzo7kb5GJzknt9TU0WlPcWdxcP8sSRsC7DgHHQe5q5a6G39oS20k8awwAPPPnIX2Hqe2Kk1fUBcQmG2QxWkSkRR+vHLH1JrSjD2ick79uwpOz1Irm68y1ijRBHEkYARTnJA6n1JoiHlwA+oFU45CYWznAU1Pc3SpGqA84xXoUoqLXoYSba+ZEZC8mO9X7ePGCaq2NuZDvPetPAQYrpgurM2+hVuMi5tpOgDlD+I/wAQKs3lv52nzxr98rlfqOR+oqK4iaaBlX74IZfqDmroOOaXLdtPZhfRPsZl6BLoMI42tEvT6V5hrERi1WT0YBh/n65r1CQBNNkgOcRMyj6dR+hFed62gkdJAOUYof5/415WMVnF+Vj0MPszpvC9x5kcLE/MV2t9Rx/LFdd2FcB4TdkIH8JORjnFegRAvGNoLZOOBnmu/CS/dJM5sRF87sMNRSxlzGyj5kbI+nQ/p/Kr32GU5wBlQC+Tjbn19DUd/MmlJ5xUABeC4yCfZep/Qe9RXxtGmrSer2SJhQm3sRS7YUVpmVAwyu44zTYrzTxdSw5a8ljjDhY+EGe7N2ArMkhttTtUgu7ye4lxvRgcosZ54A6knjH61UudfVJLRdK0oRx2zSAnG0SgLhtwHcdea8+rj6lRWhp+Z1wwsYu71NS6ivIfKkf9zFIwbbbSYww5wAeMYA5bOafcXkF5pjSaf9puLpiJGhZjIFfd3AG3OPQVwkuvSzWTQvOfKlk3Ku7IZugz3wPSn/8ACU6k6QWVtqE1vbqQJGQlVH5etcdpSfVt9zoUUlsdbHda7cwzQQwWkCyR4dZnEJtcnrzgknrXNXOmz2upIbzxJYGaIZ2ySNOT+GMVq6pd+GrqaG11PTbu2ePDSS28/mBs9Sc9+hpup/DzS9QsptWsNfMtqybYhINzbv7hI6elVKDg/e0BTTRiWfgddVtjex+INNiLyk+W7bSOfeunsPA2kWTRHUNTt533FCHnRFOec8dq5ex8P3nh+eNNUt43tLhMuVGSq/U9Ca6u10K18ValJ/YtvFaWMcaglmwwP098VlJuTSi7oTdtjSh0Lw3amSVpbeNUJUq91neP7w+Xv+NNuNH8HWaSGS8tY5GXKqJCzD8Mf0rmddm17R79BdGG5jt8RhSgwAPXH51Wv5Jr7yb9plllEmxsqB5ef5jnvUNbXRLv1NS41zS4rYWzvNcIzBwtu2xCfcFR+lLJquhS3ouRbagkoHAV1jC/THIrMt7G0/tAR3Nu7qD87RPjd9M9K1LMaONQkjvILwQBfkUlSx/GtY0LJSknZmTn0uWpr7TLWRL3+x7u4G3+O7Lgn69auL4zs5sLaaVZorLx5y7yD71h3Fzapeummz3EdpjJWWPdz9KqpZaTc5lbVWsrjPQwsR+lQpOD7D3L9lqd7YXs91AiRtLwWjjBA+nHFOuPEmoSwlWuZXnLg72ndBt/u7QcfjSpDbSoiTa7ZS46MY3Rj+lJdadaPATDq1g7L1Xccn866FKlJb2ZKckYc1zMkxEkhaUnOJHLA/ma1LS90i4WCO+tEjeM/vFVypk9MHtUqeHEmjDG907JHGJwCKxbjR5kneLfFIinPmBhgfjWcvditbq403fY0rxwUfyIWlhAO1TLux+Y544rGJtUQMsE6yA5K7+n6Vr6dol8VBgniZM8nzBxS30cEMhhuNpbH+sQg1T9nNaOz7MNeqGR+JPORIntY1QDDEkkmr8c1pLazNHZyzRHgILkrt/Na5+XTWSQOjZQngqOlWEF5YANskUE5OVOD/h9ax5EvULsfa3MImMcCy2rA4w77wP/AK1XpNWlspgs6rJF/fQ5qrD9mvnCGN452PBHOasPGtlIYbxRIg4YEYYVqqkoq1xbmtZ3VhejdBII5Mc4OP0pHeVHO4CaPHJA5qjLa6d5IktbhRkZCsefwNS2fnCAyx52DqJTjP0NTTqRi+aXUppvYfJFDIpKbTgcq1Vvs1v/AM+9WkmivoJGZdrrxk8frVD93/z3/wDHqbabvcLM3Y4lkQSQssiHoynINMljGM45qvKGhlM+n7YmP34Rwkn+B9xRHq0VyCApSReGRuCteqlBL3jBt9BjAD/69TpMLjTXi4823JeMjqUP3h+HB/OqVxMD0ao7aRormOXAO05I6ZHcfiMioqSi1ZBG6ZIlwzn5yFBJAY8Zpt48pQx42vjgg9c/0NWb+3WynCJ89tIRJGx5yp/w6fhUclsrj5cg1hdtWT07FvR3tqULDAkEhOY5V8uRW7Ef5IqhqsJ0nVTF1jZQVY91YcfzIq3fJJZnzNvDEMP94f4il8Sp5yWd0OUMEeSPp/8AWIrmmn8PValLuFnqcdgTI5KuLcojAZ+brj24z+IqCWKSS1jkuSTLNJ8oPYYH88j8qje3+1C1TKqhI3Me/wA2P5Zq7LdLfvEVVY0Zyqk9gD94+3P6Vx9Eui1N2vcRq20zyxyFJFjklOEYjhVHH5AfzqGK3YIWLKQqkO5H+eT1J98VJMB9siS3iKxQqPLLjqPUj361G8wM0cQO5EbcxB6n/H+X1rqozc2pNaLZfqc8lb9ShdRmMhIxt8sZCgZOT6+lFjZvdDzrqUxW0TZkdxncRztA/iJ/T2reijtZBKBGcRrvZVGAP95u2fxJqq+yOOMGzladRw0hyEBPZexx6104hKMXyavqRBtvXYydRktVhmiaU28SlQoILOR1OB3PQZ4FZ0OpgfuNPRoIiMFs5d/qff0GBS+J/K+0xLC2d0Yc+2f/AKwB/Gqug28jSG4MbGKNgisOjSH7q/1riopRjzS+42euiOqjjOgafdPIQbl4wgUc4dh/7KpJ+pFSWNibazglnuI4nuVySRkxRj+L6npitWx0iPVb9CcSWVo3lKSf+PiXrI30znn0ArM8QatFe37W1qVa2ib7wH+sbpx/sjoB+Na0uapK0eu7/Qh2Su+mxEbyI7o7YMlqrZjVzkn3Puevtmq0lzvkIB6cGovKITdzRDEclj/Ea9iEXTSijnk7u7LgI2bMcMOagSJrm5ySSAan2bEPuKuadbjI45rbkcmiL2L9tCI4R9KU8mpiDgAd+KRIWLldp3D+E8V0aRWpnq3oNQYGTQN0sixxjLscAetX7ayG9JrkxrbKNxDtjcP/ANdW/sWn200jw3CiZArqJjtEak9ffPb61z1MVCHW7sbQw85atWOcv7WUQzFlKhTh27A9Kpz/AA/sYbuBrjWoXjnjLyxlhuJHQoOpAzXR65rEeo20llpewyRr5s/nHYQo7D/abgAngVwlvqTXuuBILWdrOQtviWQF145+c/dUHk15eIrKo7tWR6FOm4K1zcsNMsfB+sw6ddyPdWt5GHZwm0q+7ABHXB/pXT6cJLbWZlDokQBY71yF9AreuPrXLBtG0Xdeapd+bIQSJCS5z/djU9T/ALR/SsRfE2r+Jrz7LY2My2cByqAFSwz3buT+npXFKvOatDZdStLnoeosrJLa2qqk5G8zMN7t7hfX3bA+tcjqcouJUhm1SysLiBCkk7SmWaUd/lT1HbpSeG/CF/qP2yXxJPP9lYkRxwz7WU+p7E49ad/wrzw7FfxE6xcT+Y2wJGBnB9XHpWMIJPmbu/IfMtjPbxbpGhaNJYafe3cs8j5ae3hCZGMAckkAe3rWNZXNhLas9jompXKzkq0stySJGzz0Hrz+Fd5H8MbGwvY5bC1+0RRqVHmyAgg9sd6tXHhrUUhWO0jFpEgwsVtHhR/9eu+hTjUWtzGdRx2Oa0XQbS2src32jWbPGS6+bI5Kk+oHFOvZ9FtY2VtEtGGc4SRwTUmope6ZhngmlKjDCRXO79etYx8T3MNzHNZ2X2OVMh2jkJ3fgwOK2qezguXl/EiPPJ3uSW1zpF9AzSeHZ7mdOTi5ddw/AVbthbiO3j07RNQsJWkMiJ9pLKCO5BXHQd6jsvF2qahciE3l+lzIQqsjKBjsDx7/AK1OdZ15XuHutVu1tomNuW3fIZPTIHvXBOerTb+ZtsaMmv6R4j22cqX9q+AZGEYaEn3HQfhill0PSJfLeSdrN5B+7mSKSNX/AJgfnWXaa7JbWqpJ4ov4sHhYo1kA9vvZx+FXpPFl2rRT2Wu+aYxhoZ43VZPXtwfxrNqO6HcrP4ZkntpVtLm2mkHA2Xind9Qaq3GlavpUISfTw0JIZ2SPdnHqRVl79vEU0z3epJbwnBEUswIP0PXj3qt/wjWoiYS6bcMyD5gryFc/katRSV07kN3eoyO6F1IJLcwQFflKkEfzqWbz5YSrxQygDgg8iriza4kcrajaanG2cLLFbrLGPbBGce/NUL2bWxAJjdRrGxwVFoisv4bc12UcU1FQaehjKnd3uZTvMjgzIQFONw9KuPeW04CzQr12jJ60yO9uLlI4pJo9yjBYxqu78Nv6810Nrpo8sIda0zkYC3NsF/UrWLl710vvKtpYwDYTpCwSKF45BwS+Sv0IqhHbw2rsNRmnRs/KETcDXbW+l38JEKxWNzF2ltVjcisTVbZrOZ43BZSORNEOKzdpNq1mO1tehzm9vOPlsyqem7jNWbeW5wyfu2z1Vx1q7/apkhMH9naa6kYB8vBHuOetIdWaVEik0u0SOPgvEh3fXr+NEGm7NAxbm6m+xxotqsSJ1ZDuz+BqpsMkJeB1Dt95HXAH0961LO+s4ZA0ixXsWMNCSUJ/GtR9W8OiLB0F/LyAQtySV/OtJwUUktgTT1Zz9va2ckI26h5dyvJU/L+tWYdXv7DzYnvJ3Kn5cnep/Ota2/4RSe53rYX8GRwFmDBvzqO6v9DitXSFL2O5XpFLGm0/iO1ZSp6aK41vuV4fFEsihvs1nNIBgq0fluPoRUEet6f9q859PeOYH5lMm8H86dbWWk30hX99bkDLNgsB+FMv9EsokDJqkTN02yKwP4HH86zaUbXVmVqy7JbWOrbZrdltJSeC4GD+VPfQLwDa0aTxg8NEQR+Fc3IGs5itrN56KMllBxW/oerRSOP3hilIwQDgH/PtS5nZtBo3axclt/sNtsuLffGo+9t6Vl/atN/55fpXTfNEGkhlZgRloZfmU/Ss77dH/wBAiL/vqlGd1sVylR9x4BxUV9pLSwR3dvLuYDDMBzGfQjuDTIzM5PFPE0tuSQSCRg+9eg43Vmc6epWtpG8zyp12S4yPRvpV7yS44x+FR+XFewnHLLyyg4I/2h9KntrjysJcHch+7LjAPsfQ1pC1rCaY9PNksjGQWNsSy/7h6/kcH8aYLwRYBHbIzVqK4FtcrIACAcMvqDwR+IqoSjyHYN0YJANSoWno7Ibd0SzGK/s5Iiq7iMrn1H+cfjWdbvFdaVc2e0h4o90eTnpyf8fxNaA2jkEA/lVPUbGWxnElsctNEtymRnk8MPxxWlWKjKL36MmGt0czNKsl1ZgyFVgjZwoP3gM/41qaBLBI1vLcg+Uw37Afvj3z0z3PpmsHUZg+q20SBmRo2UY427jjn6cflWr5S70iDqqIMHHYDjn246d64JU07ROxr3Tcmv5tWv5I4MkM2WZRjd/9YdMVeS1ttNnP2hWaVVBCDnB9/wDD+dZ9ilxEAYQ0EI9Pvye5PYVo583CLFkscADvXZTwzkt7I45TSdlqRWMzGaaWdmEKHzGBPBPb6k+tWY5mlgklEgWRm2jvnOf5VFcR/J9mXGFbLY7t/wDWpIbYR2zyHlkLHGeg29fqCRVVoezotpaOyEmnJLqc5qumNJMWXdubAAPPsKv6ZpMktrNDBKyx2Q3biePNP3m/AYAHckVIHnkC5U71OAw7mtfVbyLwtoFpJBsa7miGyJxnBOSZWHsTxnvXHjErxjT3NaTdm2O1G/8AsGmwaXbOUlih8ucDjYP7v1Pc++K561h8y5LDopqlpzz3rpDCGlmlbAA5LH/E1radE0MxjmBQg/NkdP8A9Vehh4QhFRXqzKpdsm8vaDmnx2+dvHJPQVoyab/xMhHJlYvlYkHOVPOR7kVcktbC1JvYZ2mhgG9oUwzg/wB098n/ACa6XWgne5KozfQx5I23iMKdxOMYrorLQ7qEvuiYherCkfWNLNtJdXBhSY5XzkkzITjjaOct+WPc1j/8JRMJ30nUZ44i0bBbkAxsq4+5u5BY9NwAzWMsY07xRtHCp7s2bV4T58M5R9RiX5LeOTb5j9sZ65P4Vm33i2K3lNotnBdyFdk6gMGWQdck/wAIwST7ED1ritT1KfV9WjkE0drcWybVYSbdwUY/MgdqqJqcsNybwPCwI27WQHHfjPfNcs60p25nc6oUoxvZG9qetrNqYXUpnuUVkaJrdwEBB4PHGFHPPpipP+Ejudf1WONpjLPaDzYlMR8uRgM5ZRxnjHPrXIaTqMFxqL2d4f8AR5csZVOGiA5OPU4BGPereoeKTFC1tpsZsbE4xEh+Zsd3bqSeuOntWMm07G8IJq501v4XkmE2r6+LqzEhzFDbxF5pe/3ewHvWXD4p0CzR7O3066itGOZX84ebO3+36D2BrnB4x1KEoV1C8DoflJmYgfnWlpKaLd29xq2twyXl7cSFliDbIlx3bHJJOTgf1qJRuvf2KUE3Zas27vx14es7SOSDQ/Nuc8O7A7PxOf0xWvceILa80+2muL+1sJZEDNDahpXCnnDP2PsOlcdcatpPnKINKsIUUYCLGXz9SxOafcf2VqiHy4GspWHDQSZT8VPQfQ1m4QslY0VFN629Do4tU0+PU1fTrmOLdGVaSWF5QPchjyffFWhfRRxSxHxLaz4OWQQAYX26HI9K8mF/PaXTxO53RsVP4VfutRjm00ElfNRgYz39x9O9aOE4pKOl+xj7KlK77HqCaPcGNbjS9Vt7kKMiFMqD/wABz1NQ2F/qkV5svbjUII8/NAY2baP9kk5/WuN8NeJYbKRftjTrBjkQybfm9fpXcf8ACQ3SOJYdYnFs4xG00e5f++l/qKxnNwfw69WjCdNxejuhb3Ub6ycy2es3Dwk5CvGQR7EH+YzVCTXry/kSa4s4L3ymycRg5+oHNT3movMmNTuYLiM8jByCffHI+uKzHubM6gJo0u7a4LARywSHcT2x/wDXqOdSd2iU2tLm5Y6t4cmBlu9NbS7hzjzYVO3jvz0FQS+A2vLaSXS9YivLaSUzyLnBJx7cZ/Kqtre38l7NnfqkacSQyybZT64x3/OprWz0O6uVNld6jod3Hw6SMQCT0yw5/OspXTckx3vujAl8J6pbvLHPYzozYMZK5Vvy71saLYXlrbbv7NEwDYljkgyVHseoI9qvXMXiiwlS5h1E3FuQf9JQh0cf7WPT1INKlxKLX7dd6eykjLTW7F4z7svVfr0quZu1xWT1Rbms7W3yn2CPzmGRHLHjd9HXkf8AAgfrSxRw3FgXeS4MERw0d0PMEXssq8rj/aFY0c0D3KqjwSWzKzROSD16ofes2Q3Ph+8N7p0siQyHDqhxiuyFKTV7q5lJrsdVJHcR2wubCaRrcHJlilyF+pU0251HVIseXrJUkZ2ySo4/JqyZNctLrY+oWjIkgA+22LeW4P8AtL0YH8K2Lm6e707bbXVjqqIuF81dk6enHU/rWsJSguSSRLSeqZjX+qavNhLyPTLxM5DBIww/KnI7y4S70ZX81gsYS4wM/mcVEdOa8dFht2Ew/wBarAHb+XOPwqU2NsU2XCICp27hxz9R3oVNTb5ZJPsDdt0aieCGmj8+2sbu1uMZCx3aHB+jClh8Ga1M4e+lWIKCTLKA5H/fJrltSsWtSJLa5nH+yJDWf/aV4XAMzuDwVc5B/OueVOz95alppnVTaRd2moMslzo10doI8wqpYfQ45plwlvvV1sYImHDNBIQD+ByMVhRXVvGgS70wOn/PSJipH9KvQyWbwl7Uyuq/eilUEj8R1ohG8rbCb0IbqztY5llczQbuWIj3D9KtPoVzNafaktpprdlys8I3HHvjp+NSWV5EY5Fjx5TcsjjP8/6Vae+ijQS21jEsafeks5XgcfXBx+lNuUZ2kwVmtjn4rWS3QGd2EROFP+NTzW6zQlJFZwvIkU5x/wDWrek8S6XqSLBqUlztKgf6VCsob/gabWH61UkudJjjZrO2u4HU/dWQSIR3OD8w/WmtHaTshWvsVheWBsobeRvMvk+6EyCfqa07WGxv41Lzi2ZeGjmXdmo5NItNXuoZdOnVfl5kH7sbvx7+1VdVs7q2kL3aedLCdjOg6j3x0NZ1Pedr/Mpaa2I9S0mzikcwzlnPAESkL+tUJNNiiiXzJBDMeVYHKn/A1raRaz3JL28uVAyQ4zWjLpkLwOt9agFj8sqDIH1xRKlyQvfUFK72Obt9WubN/ImmbGfvMMitD+0Yf+fqKsa6sGid1Rsqpxg81V8r/Y/WseVMu7OjRJYiWD7lPUdxRKhYgZ685I61feFck7lDVWcZIUHa452nofpXvKm77aHG2iqLdopBIhKupyGBxirEm24P3QhcYdQPlP8Ahn0qVNsmRghh1U9qmii5HFN0uqdhKXRlFI2tT825oR3zkr/iKtRBROB/yzYZzjr6/wCNXTHGJNpUJu5HvUEtqIkJjb7p3BT2+nsazsmtEVqNFm2SCQcHFS655kUdjMgBFvCgIPbJP6VIcEBweCOD61X1W8hSwm85hhYAADxuI7frRVSlFX3Q6d1LyOIvRFDrdzIIyz252xkDAZ3OV/LJ/Kuo0rQ/s0KzXKgysM7Tzt/xJ9a5zSRFcO63bL5UzeYE3AFvz7DOK7OGZZLaNY9yqFAAY5I+tRh4RlJyfyRviJOMVFb9Rf3YU/Nj9KseaLGEPgGaQfL6qvr9TTIbIJ/pFx80K8hSMbz6fSqd1LHG7z3dyqbiCWPAGf6cfpXW5Xdtl1ONLqtyJ7pcHaSPpUMmrtZwglFkEkqoCeOc8D6Gktkj1K2juYT8jnDMcgLzj8cn+dVNfFtbQLDBMrSq2Wcrnj2HoCD15rnxNVODjc6cPRfOm1odhZpHFZW0lxFE1wMrHCjZBBb7x92I/IVzuo6Tc6lrcsp3yxCR9zygL93t/gO9aO3TdD0y1kaQSXDs0UpILq5GCTkdB1x356Vmf8JOumSXFltSGNwWj8kDcwPRD7jJ/D0rjjZPmtq1Y6HTTfkN0fQbCEPezXTzSxHeba3GQCe2RzwfToK1r3VbO5LwXCwyG6Cxl0G3cxUDG7+EDGCTj6Vys1417PcXtpIlqtuVWWOKTbkE9u/r0z9azxJKZ5p2kDRzKVKDHP8A9fjrRzNFqC7HQ33iE3k89peTLHGsgQTWqk8AcLt6kAjkjrVOXxHcSPMltIsUfCvs5ymc7QT90cngevesRJtkDiSHM4lAjZTkkH+tLbwm5v7e2WH7O9wNqtL8uTkjn05yKNWPRdS6mpSw6kLu3ijijGVVQcY+uOp6jt1qgJGJuy4Xhcxr97/9QHFXh4auPsV/aTJItzY3CmWMfeYHA+Rj1GOfqK6rRfDMNvPbXOcSLA0U+P8AlrkY57Z7/WtqOHlUfkZVMRGC8ziPsN67wiS0aN3UuCRksvdh6gAg8ZqtrunLpMMNvIT9pkAnLRt8pQj5eOoPXrXsel6ZDp1lBADvW3B8tnHKg9h6ADj6V5x8TYbOTWorrT7+GedkCywoc7CvqenPp7VtVowox31Io1pVZbaIpWum6TokCvfsuo3kihtkEm2OLPZm6s3PRcAetTf2l4fmH2VfDMcl07BQftMjE/QeprnNl1qd3FZ2kLPPK21YwRyfr6d811+j6HpPh6ZJtWvp7i9UH5LMqEhyMffP3iM9uK896at6noxSfupXM0eE9GtJZ21W6ud+4+TaQFf3Y9Hk55HTCg9OtWLCHwzHZC3uBqbYzzHMmMn8OlNuotHufNXN3uZiFcygbR2+UDk/jXFXRktLqSHzMlGI3A9aa5qnUclGlrbcveIbeLT9QxZTPJayDdGZAAw9jjv796p2uoyROPmIGfrirejQRa3qdvZX0rRQkktKOSigZOB3JAx9a6y40TwjKWSGC9hVV2hxcqzMfUgjHTsKtyjFKMtzJRnNuUNjho7G+v8AzZ7e1uLhVb53jjLAE+uOlQNFMkgjeN1cH7rDBr0ZRNYadHZaDfStEjF/s8hCszHvkdT25xVIeITcu9pqiFznY8cy5IP1PINJVr7LQbw9t3Zmda+GtOubIedqMsN2EyCUBiDf3eOfx/StG1vbjSAllKhEIUEKTuDg9x6561hahbzaZIJ7Vy9qxwDn7vsf8at210L61MR4dTvQ56H/AOvUScrXvdFxUbuNrP8AM3vtViIyskJeJjkMpw0f+7/gePpTIowPMmjuw9sqEjaOdw6Aqeh/yDWTLMPIj4A+XIx3rRs7WdNPi8gETXDbtwHRR/jUSpuVkt2clRKLYy1vHuoJGBZI2YCRgMcjkZI6V1NqZb+cJeNHPAQAscqbjGvTIfrg/WorPTmhtmgkhULKfMkCjAOBj8KkmsGsbWPapkjbnyS2CO+UYfdP5j1pSw8kpdLdGYOauuwS2N5ok7jTJbiBJBl4XHmIR6/Qfj+NXovEskkwlutKkUJ1msJ9yn/gJ4I9jiqmnX7ROYReSiHGNrgBlz2ZTx/wJeD7GmWH2u3MggiR1VyD5R2SgfQ8EVNOmptruPmaNO88P2urRjUdNgSSTO57d1MRk9SPQj8RWebaG5tpDAHuolBE9uSEmiP/ALMB68UXVzLdR7LO+W1vwflWUGMSezL0z/tDH1plrdQ/ah9teTR9XA2sJjmGf3V/X6/rUqM6TbTtboXdTVmjLt5NPtUmgf7UkTDG1wCR7im+VbARrI6xy5yCRtz/ALQz0z6Vb1aF7x9t9axrMpzlOje/HY+o4zWRMJ7eRRCxeJQSsb9cd1z6j0NbKXOvdd/XoZONmb11rF/EiQX0K3MYH7qfJDp7rIOcezZpYftWrSQrOxuUByRgLMf+BDhse+ayLHV5jdIbWRod3DQk7Q34Hiu200tco/2YW/mqPmWSPYyn8OCPfFUmpJcy17hbszGk0BbzzFsX82VTzCxEcq/8BPDfhWJLpVzGJJo13vGdskL4Dj/gPU9OozXX3T28M6S65bRl2OC8bE/iCOQfrmmWjW91JcLpl3a38W7m0vlw+PVHOD7cHt0rOV72THocTEWfMittXoyA9PwNLNbNGRLAG34zlQRmu3uPDds582e0urDYCCso8yIf9tF5A/3siqT+Fr+2sPtMLwzxE42xNv8AyYcEfXBram4vSTaJaa1WpykUrZDiVklzhlcYBq1FeeXIcx9DkjGQanvLLz3KvGyOB3GM1R+ytbnD7tp6MpxQ4PVbruJNGpLNBIEnsRGkoGDE6hlP51Q+3y3FyB9ngS5jO4Kq7Q1NAjlcoAocdDnGamkDuiIYlDJz5wXLD8azlFR6X8ylr1NpXstWsSwtvIuT98I5X5h6rVW21dHmNrcedbZ+UyRHGay5bmQXQKzZmUcFBw31qSGR76/MLpFmQdTwP/11z2u3qVqjZ02W50y/CtdPPbyf6oEAbvbPqPSuhlv4poQIFdpAfmU4Uj865W5025trIwsEeNuSwJ+X6e9QWupLEBFqEj+cvyxzAZz7Gk23pfQZc15DLuO0xMBwcjn8q5rE/wDs/nW3fXDPAyvzxkMOQawf3n99P++q1bTJVzuJLGRJMTfKT0B4zVa8t0iMaSMAXPygnGcf4Vk3GrC5hjW1lury8zkyPkKg+nqeKqxeHL3U5/O1Gbod23PQV1xrtP3mN0VbQ2nmgt9gup12swRJQcsrHsR/n3qzJfWtkB9puIQ2MqyNneOnGK5PUbaztpgluQHJyXVs4P4enpWVHC32klYeABgnvWqq3V0HsF3PQtR1W0trZzNNCUAyArAsT7e9U/8AhI9Pjg3TTh5AMhEG4t+XQ1x3lrKSn3eSCuc1LDEySNHGrrmMnfjI/Cj2lndKwewVtzpj4osRYEx75HOCEVTkfX6An8qytc8QedZ3FtAm0soQsSPmH+Pt261nfZ2fAjjjSMthyO3b9ajm0yGGZhDMVkU/Kp5B/CodTSxcaKTuR6bczRSR3JhjmMQx8xwATW/Ya/Pc3nk3IWEQkO8kfy7gOo5/lWCY0sshlYow2mQ98+oHYdKkQvbF5JpRJGSApUcrnikptLQt01J3Z3FxqekSQvqNs6pdKvGS5BYEcY6crkHI6YxzWD4o1JdXubdo1Q26qFMJO3p1yff0HSsczLbXqm1ClChyp5VuxH1PX8KhupYrgv8AIzs53RkHAPOPzxz+FLmbKUUjYtbyW2KR2c4jhj+aNiMqjHHTPOQRkfnWbrUj3LmT7dCxkBZlUEYbqRz0z178+9V/tY+zS7JF3SAYDnaVPTn69fwqMF7jyo2lgPmjDuw4BPH5HgVK3HeyH2+pTBEFzLJvSQEqxJy3TJ9Dj/8AXVk3ChLt2WNyQDGiHGP9on39Peo7Dw1ePJMt5FcWoWIuimPcJOvAI6H0zXQQ+E4oobA2paJRG4uQxO6QOPu/QZ/Ot1QnJ6JmLrwjuzmheKcbrVoSQN2ecZ4BOOgNS2mnXMttGjRS21nNK2bjGcOBxz3Bxj8a7Ox8NW1vAGmDCCKNUd8YeXbyAfU89a53xJd3MtyHI8uKIYiiXhUH+J9aHRkntotyPbqS0+RdsfD4itru1aRZIp49oLjJD/3h3H/1q6bw/otpFqcer3QjSLT7bY2efMkPJJz3zzx61xuh6495qEVuMtK3AWux8QzLbW0emRPwgDy4PVz/AIV0VPZygqdPd/gjBSmm5S2FkvX1a8MhPyFiwHr71rW4EYArB0pCgAHp1rcjycAV6GHpqEEkclSTk7kWu6s2kaHc3aRrI6ABVcZXJOOR3Az0rxW7uLq+vZJSAZZXLOwAUAn+Q9hXs/iDSf7W0C6tt5Rtu9SPVefyOK8Zu5WhQADGB6Yrzccn7Rdj08C06bXXqT2IbTL0XJfzgVKMqj5lB7gdwKXVL5ncHJ8sjIPrVvTPBWvaxbi7aNLK0I3fabx/LTHtnk/gKym0DVX1b+y7ZPtU7nKeU+5HHPzA9MdetcXKm7tncqjUWkig97IG4Y4rpNH8O6ffxLc67dTwrIu5BbqpJ+ufaprX4cho86hr+m2cveHJkI/EcflmqniLRH0a0jNlqsOo2sZ2lo1KFD7g9j6021ooPUmN9XNNpGneaT4ZVIotPN3aygfNO8okZvqvQD6Vk6r4autPsWvre/try2UjcUYq659VPb6Zrm/Plzksc1o6fe3M7GyRhuuR5Q3HA545PpT5JLVu4lUg1ZJrsJY6tJbuPmOO/PWrPiDUkvbi3ljGZhH+8YDr6Z9xW1c/C7UkVv7O1HTdRkUZMVvN83pxnGeeKxk0NrDUHt9eEtrKvSPIBPvn0+lFoX5kJSm1yvr3KzajLNp5tIkLeYRu79OmKntIr22dY3tWTdyC4xirlzpE1ggudMuBcxldzAD54x7+vrxS6bqX20eROQSDkZ7/AOFS2uXRaFqLvaTs+hdtbB9RuY41+6SF4716TpmmQ+cFwAIlCrn2rhvDcn2bXP3hLbVcAAcBux/Guztb3yyAThh1rowiUp3fRHBi7xdjR1dDCbeK3jyZgY2bHAFZ17HNbuI7VY3VVLmOQ4AHsexPPtWpHeLdTrHj/VLuz6k/4VnSSiRNQueqRqY198D/ABNbzjGcJN66nKm00c9ZRQashdHZwjBT2kj/AM/kaLW4Flc3FvqMc11ZxHCTxcSQk9Onb2/L0q9b5sEheALHKSO2cg84PtV+OS0urieSCMC42/v4hyceuP4h9OR6d64Z03Ta5lbzRtB3vb7iC9ja5s1KtDqFowyNwxIPofX64qqLFh5aQyCW3fg2t58wHsD1U/nU0dxFYzbWUm2mIw6c7fr6j36j3rUuLKK8tsHD85VlOCPx7Gn8TaktvxKei0KkVnb7IrVAybSQsEx+Zf8AccdcencdqwrzTG8kvaeZPCZdpYn5oX/2h1A9627m2aSzlieJ54lHMicyxHs2P4gPbn2qjYXT6xayxSXQ+0wMcgfKWX+8G65Hoc+9ctSDpyTi9GaRfMrMz7fR54rmWGaFWlA3hAdysR1HHQkc1s2csBsnvLOaXz4h89rI3zD/AHW68fiDVRLG4mjDtcrcRrhRewnbNbHtvUc47Z5FPuLE296IZrgNKAGIfCOp9Q3RgaSm07PcXLbbYqX+qtqOwSBgQCVBGN35cH8KyZHMZA71p3lmA7RCVCjnJjlGwg+3bn2NV3t5OILmMKScI7/K3/fXQj6/nTUru7JaGQ6jeJCUhupQqggKXPA9Pp7c0tldX1gRPZXUlvKOoV8Bh/I0+bR5rJS4IeIHBI4K59V7fqPeoSjbAetdLhDlumTd3szoofEp1ZYl1a2jmCcb4T5cg/8AZSfyq5LoVvqMZbSrtJ2brbzDy5PoOx/Cuce8CWRVrWGYKPlcfLJGfqPvD2OalQ/aBF9muPOlcYVApVgfp/UVNKqlFpjauVb/AE6Wwm8ueJkI6rIMEf59as6bK4k8qTaxIwu84z+NaVt4hnIFjq8S30Gdu2YYkT6N1H45plzZWcJIszJLbsM+XKMPH7AjrWVRsa7lK/igmRoZIXhlPIJGP1rNhtmiR45iwdRujYcdK2UuhKY7eaUPEzBSzcFfrWne+GmIWSxnYbTuCnkf/qrBJsrfVGRHf3CWUbNK08MgwznAK/WoZtIM8a3CL5ka8svfFVzcmG9mKJiBjteIjAJ9q3LArHB52nv5kR+/CTyv0/wrNtp3DcytSLRWYC4MTDhgOn1rExH/AM94vyNbOsbRumtnxE330P8ACa535vWP860hsB0sesQTIV0q2aU5A8xxtVf8aW6EnyvqF3iPtGDtH6datR2H2a2MVsQrZyHYZP8AnrVKbR4bi8S4lMjOvYuSD/nrXcsvq72sN4qHQ5+5ltyZhbHCgbSQOhpMmNLcqWk3DaWOARXQw+H7ZIZIpIhIjSb+ev0PqKd/YdmJ43WFQEQoUIyG9z7j1rf6rNIX1qHY5qI28aT+Q67ycsxHQ1ILoQpbwTMXL4BlAxj866eLR7OG2MPkI8bcFXG7P49adFZzW97HPbCCTanlhJRnC+x9vfNR7GV7Mf1lLZHLedbRpN5DqrM3JfnJ9KDeSXLxxiNZpPKIPlgHGBn9AK0tchENncQ/ZVhjZdwKANtb3z2AzjHSuXt0aIDLGOSP5uDjAIzn8ahw5XZm0Z8yui7ElzLGCltctCVLjzEyCF6sD6DIqWy03VZ7CSaxty8AByHHvzjPXPtmu202S2uLK2GoSKCEBWHaVRf8a2UmhICpLHgcAAjiu2nhYzs2zkqYmUXZI84sPCeoTXtp5xlW3mj86RvLx5bdNnPf3rdsvCLWxRVaOYRtGGaZTzjO7A7gggfUV1vv/OmO+P8A69dkMLTic0sRUfUxNc8I2erWpEKpbTqhWN1GFx/tAdcV5zawrGGRg25JMKy5OBnHHsT3r23ShHcSSW8mN0i4Rj2Yc/8A1q4Px1ptwlzHffZkjggj8slByOepx0GSBj3NYYqmmm4qzX4m2GqO6TejN7w3qy6np6h2hWVD5fkxnO0Lxk+mevf61uxWqkF34jXqfWvPvA1xImrPmKBEeLdMzthgoPUevXpXoMkxkxgYRei+n/162w9V1IJLfqY16ahN9gn2ygAqAq8KvpWLqWiR3iEBQSemK1SSTgdalyLcesrD/vn/AOvW8rJcqRlG97nMaH4fh0XWFdUBdFae4kxkIijO0e5OK5Ky1e51XXJ5LgnMshfae2T/AEr1XyV/sa+kxh5gIQfXPJrzDUbJtK1ITKp255xXBHDqFR1F6HT7Tmios7ywtsQhvUVpxIB0rJ0S9W5tlwe1bKCvS0tocjvfUlG0o24ZTaSw9q8gS+sxrEt4LGLy0YvBDJ8yDt8wPXjnHr7V6nrE0Vtol7NPzGkRJXON3+z+PT8a8Idrme+ZbZPmYklRyAPx7CvIx3vTUT1cvtGDla92aWseJL2/mLT3ckoHQuScewHYfSjS/ErWum3Fs7hWZ9+SeW7Y/Dk/jU2ieEpdSke41eb7Bp8TANIF3tKf7qY6nHc8DIrdmj8AadGQunXty7Lg+dckbT6jb3rhahaz1O5SqXukcPd6xc3BJMhx2xxRplx519DDdysLWRgs3GTtzzj3/rWnF4btdUvWfTb1I7EOA5l5eEH1A+8OvPtV9/CuhW25Dqc9wwOBKihF/I5OOlXzQijPlqyd9/mSSN4OfZFbadOrDrJLcli35cfhUcmk6Xqbg6TcJYz45U5KMf5r+v0qlqnheO2097zTdQ+0rHzJEy7XUeoweR+Vc7DNJE4ZWIIPrSScleLKclFpSjY0/wC0L/Srx7eYlJI22sCf8/WtiO/i8Qxrbakx3HhJepQ/X09qxL6C/wBRZ9QktZ/LIGX2EgADH5cdags/MWUeTOiE92OMU3FbrcSm07PVeZftL6406/Nvv3GFjGTnOccfkakntVj1BzA6hSBIAD0zzj8Ka2ieTGLmC689c/OyjlffB6itBPK2W8pYXEcQwFlAOB+HUD3ziok1fRlpSttsdF4a0/zZDeFSFYYViMbsd/pmtb7NLLfxww/fc4Ge1X7C4W6063mwqlkwVQYAxx0pbmGWK1kuUOzJ8sN6564rrpxUaN4vVs8utNzqu/QZZXP2YPmTf5eQW9ashFj0BwSPmUE+5Zq5o+cIHRQduQC3pmtO6keW1tEBwhnBPPUChS5YtPv+Zna7THXyZuoAOgJJFZ3lf8TmbcAY5Y8EGtMZm1I/3Y48/iTVKRCNQV+28qa0rq9vUmGlx1uGsMIApswpyxLMy/8A1v8APvV7zluLUT2dyocDJZOVb6+1RocZUelQ2RSxeRxaq8UhzIi/KT7j39u9c1SkotuOqNlNtWJbDWJTqbKYzHNj5kzkN7j2pPEFtvQX9oqx3cRLErxvHofenXFgsgS5tnEsQOUYfKy+x7g/pVb7elxuhLYmU4Ktxn/6/wCh7elYuUJLlfyZSutTIhJuLqC8tbhraWQ7N6ZGxu2fUHpiux8qa+0yE6z5bLAdsjQxbxHn++nXaf7y8ewNchHEtjen7TlbO4ysmBnFWhf6ro/ly2tyZkjPys/Up/dP95cetcbab5Zb9GaX0utjc1LSZIbAyWKQ3lljlD84H07j8DXIQ6vdWTmOGJxbg8wk+Yo/4C39K9D8M65a67AYo5bazviTshBz9Rg/eU+nJFZWq+Hre+1ORU/0TUBy9q3Af/aQ/wAQPp1/lTi+V+8gavqjLstVtNUAUWs0TREFWhJbyz9DyB7An6VbuhBexs1wiiUcG5tU6/8AXSLqPqMfQ1j3Vrc6VNvUtGQcbhxn/A1YtfFt1GQLqGC42jAMi4YfRhzTd2/dFddSnLFJYSAOVlifpJGdyt9Pf2ODTDEYX8yNvkJyPar7m21W6LwRvHnl4ywP4j1/WpxokklnJLaSRXCKfmjQ/Ov/AAE/0qudX1VhcvVFGW9lujG0km906Bxk/n1x+dW45JPI84FWQHDKpyyfUeh9Rmsy4tri1KieJow43IzDAP8A9arFqN4wThl7VpO0kktxJtblyG2FxmcbckbcEZDfWnDUrmwQ2yyMEYYUOc49s1Ys40AO1irAdRzn61HNCt6TDcgBeisvHP8AjWcoci1BO+xRktjInm7eI+WQ87h/jVmOyQBbvTJzG5GShOQalEcunRi3vDvhbiOYDp7GsuKVtK1I28jFreU5VvSuZu6si1oS6iDcRmRlMVwPvDs1YH2aL+4K7ma3jls2JVWBHeua/sy39G/76NOnLQdjs9RAjBW1hRm75kAxWDJcSo+HmtI2/ujLn9K04tBl35uBLIAekjYH5CrBtYYXCJGiZ/ujFfSxrXVr3OJ03vYyUe9mH7suR2IhCD/x7n9KeNOupOZLnZznAO7/AArYkQRAYx+HNVy6ue2fatI0/aLVshtRM86bsG5p5nK8jLYpPKXzA7hmbj5smtPywUOD2rNuZWyYIP8AWE7Sw7H0+vf2onQpwXNYSnKXUhmit5pHijt4pZyuCzjcE+v+FYtv4fs7dxcbXlgin8tg5zuTuT7ZrfmtV0fRy0PMjHG4/wATHv8AzqDTkJ0qMOCRKCT3zmuWUbzUWtbXN4zajo9DT2XNjGPsjCe3Uf6mQZIHsfSoI9S0+94niSNs4IdQf1//AFUthdHyzFIfnj4Ge4qO906K5cyxgCU9QDjd/wDXrd89lKnZrqjPRu0t+5cFrbgboWkjB5BjkIFOEdx2mWQdhIuD+YrJt4mt8lZGQA4LdMH0Ydj9ePetMXTQgeehbjhkHX/PtTjKEtZJx9CXFrZ3J472WydHa1fcGBDREMB/WmeLpodXsnSzlGy7Qq8bRtuzjJx+X0ojk+0kFGBXrn0rSiH27Sbm0wSFHmQttDHjr19R/jUVlJP93K/r2LptdVY8b0242XtvO9s0ywMpEYbbvHcfT29q9ft/tE9nFcXFq9t5xOxHILYHTOOleTatpUukX8lmrugJEkByWBBGdu7uR7V6ppVxK2ladMl9/aEBgBVmwGX1UkdcHI5wazw05Qm4G+IipRUrlp/9HxjBlIz67f8A69Qc8k8nqSe9SlA+TuBJ5IPBp0MJlnSMdWYDg13RlHW71OJpuyS0LV3iOztbcY4XzGx6n/61czr+mLc2xbAziuiutr3kxRQqbsAAYqGZFeEhsdKukvc16ik7S06HB+HtSayvTaSnBB4z3r0KGVWjDZHSvL/EkJs9QFxDwyntxmrdn4xKQBcNuxis1UjBuMnsaum52kkd1qwt7ywmtrkkxSLhgDgjvXkd1tsTIYQNpJw2ME/Wuhm1+e4IA6sQMk8Cue1eU32pXDRwjBckKOAAOP1rz8dOE2uX5noYKMoJ3Kya/I1kLS4lkWNCWjK84z1498daxZpjI5OWwT1J5ruNG03Q9I09dQ1iA3t++Slo5/cxjsWx94kc46c1j6hfaZqMght9EVbtjtiNu2wEnoCvf8MH3rjg4p6I6p8zXvOxzsF1Nbb/ACZGTeMNg9aaZXkPzsx+pru7D4fQfZjLrmoLayM2Fht2VtnqWJ9PT9a5/VPC72iTz2V1DeW0R+ZkYblHqV/wzitFODdupk6c0r9CtpNtqd/58WnW81yBETKsYztTpk+lB0TUrO1F5JbMkQGQ24ZHbO3rTdK1O9sUkissKX5Y9zWtZeKnJ8m9hjdc4IC4NKTa2Wg4qMrXdmVtK8UX9lOi208gDHDHd1H41e1hI9dsvt1nFGlzACZ1RQu8f3sDuKz/ABDBYx3kMul/KJE3PEP4D/ntVbSdYOmz+aIi+eGUnAZT1H4jNSop2lE052rxm7odpN/JbXClTkZ/KtSMKNSkiUFYnO9VHP3hnH0zXQWXgSw1KZb3RtTijtLhC0cEwzJGf7p55A9f510OieCBpepC8vJ1uJuFQBcKv59+KueHm7tLQyWJhFWb17B4fsZrDTILS4/1oySAc4zzj61tawFCR2o+7CuT7setVLKQvrE1w+fKi3SHPf0ptxcfaA7k/M2Sa6ab5lGPZHnyd25d2ZQjPksh4Lvx+FJMG8y3UfwjO2kKPJOcZAQYB9zSajcNZ6mBt3bYyp7dq56yfOku9xxaa1LNlKpmmbIyxAH4VMLYSQ7u4kDVi2ztHIVIwzHOPrW7bTEW2D1BBOKuvP3broFNJuzF+zNvJxxirtrZLIh4Gen0qQkdFx8w5qxZFUm+8ACOlCnd69jV07bGLe6SDGQ5dNrblZDtaM+3sfSua1GMtchZF2TZxFOBlJP9lvTP/wCo16FeyKNxODkcDFcbdYSSRMAxM23nt7GuSqlB3WzFurEEVwJrOSK7RnjX5ZVIzJD9f7y/7QqSxhlm8yxnkWSKJN0bDklP7w9QPSoZdNu7eSO406fJUY2SfMQPQHuPY9O1PczWskN7bRGGRG37M/LnvtPoeQR39jXJUV1oXFpPy6mftu/D+uJNBgTRMHjyMq3/ANY13N3rGneM9HVvNhtNSh58uVtrA/7J7g/pWBcy2fiOMi2PlOo3RB+Nr94/oeornZImB/eJtlQ4II6EU4S5lZ7ja5X5HUzawt4jWGsL5F6g2rclcq47CQf+zCsV9EnNz9nbasrcopb5ZB/sN0P0rZVrDxTp6xfurLV4F+RWOEnA7Anofb8qwEuZbKQw3EfmRISGhkJwPp6H3FUk09BO3UDFNazFHV45EPIIwRTvNe4Il3GOdTjzEO3d9cd6uxa0tyhhu4Td2+MIXOJY/TDdwPf9KiFsjuRBuPcA8GtUkldk9dC2NRvXjjguZ9wU7l81Aw/XqDVuGXTNRuYra4tTY3Q48yCTCSfRW6H2z+NY6XCgm3ugWiB4YDDJ9P8ACnTW4P7qZg24ZjmByG/+vWD0d0Ve6Oll8PiCQx22pQ+YRkRXKmFz+fB/CojYXNqcXETdfvD5gfxFZem65c2qG2ugtzEODBONykeoPUH6VoSS2JjEljLJZyt/yxd8r+DD+tZVpSnoyopLVEryLN+6cbkxgqec1z+p2D27h9xe2B4yMlf/AKwrct72a2OJ44pQ399A2foRUV9fWzwujQ7N33QjdPz7UorlSsNq5l22pP8AZTEHJHQE849qq4uf+en605BHdAneIyBtcjofQ/hSfYpP+f6D/vutlASZ3F94haYnyLdVX3OTWVLfPMdxAHsKiicOCQc4p7orjNfTwoQp6pHnuo5aEkc28YJ/CggA5qv5bB+M1NiYRhhCz7jhQBnP/wCqtvaRS1djPlbegSXLcQwkecwzuP8AAPU0aJYm9d5oCpAG2JWYAle7c9Sx5+mKp3EbcW6sTJN80rDjC/8A1+lK8wtoWbb8sYyFHtWcm5a9ilZK3cs6wkjzvHJGyx2w2kEYy5G4/ko/Wm6TEJNGtCepjzUH2y5tdNkRpmJMUksgJyCzDb39Bx+Faujy2/8AYllFcQMjLCo3xnBPHcHr+lc8JP2t5K90aSS5bJmbcwtDdFkByy7xjuV6j8R/Kpo5CUV15VhkGrt/afPZy20izD7QEKjhhuBH3fy6ZqlbxPE9xbbW3QSEhcdFPI/LJH4VrDlU3Z7kO7SEkcnLpgS4wc9GHoabCGk/49R3+aFzwD/T+VPCGRwMck8Yq9DppmO20YC6UYZScCUf3QfWitJRWm44K5BbCKVysYMTqPnHQn/ED15rUtrg280bzKpjU4ZlGMjvkfSqnlRzABlZShwP4WQj+RFOSWS24uPni/56qOn+8P6j9KIUoxjfv1QnNt+nQ4r4jMLfU7adEIQAqsbYyVB4YjtkHgegzWr4KuNOe2jSFXt7wgh0yQsvOdwHQkA4454o+Iot5NNsJ7Wz+VTma5jUbAx4wfUkDPeqfgi6l+03EEkloYgwlRHB3HqAV9x/WuKjK1fXc7ai5qGh3BQd6ktYIp5juCkRozklc4wK57XPEMWnoTu6dKq6F4kkuPDXiPVNpCW8Ahjz3dv8iu7Ezpxj725x0oSbXY1J9Wt7fIM/lHsXO5T+fIrB1bxDcwR7hCzRnpKnzIfxHFcZLcXN9zMzYPbNS2VxLpzk28zxk9QpwD9R3rklWlHWnovM6VRTXvCX91PqD5kOR2A5qmEaPnoBV4zByWIALHJwMVt6V4Ye+tft2pSix01eTNIMF/ZB3JrmqVktZM2jFJWRgacbi+vI7a1hkmmJ+VUXJNXfEGnXOkXTxXflid1DyLGc7c9jjuPSu207T7yeFovDtqdH0phia9mO2WRR1OT0+grF8Ur4b8kW+kySzXKgBpx/q2x1Jz94n1FcbqOclpob05crt3OMv9UjkhQlX3qMAdhWfY3U1jew3qR7QjbgTxuHQ4/M81t2vh5r5yXdVhUgO55Az/Oqmp2dnbbgs0t1Kp2gEBUUdvr9BitYyitEbTjN+8+hU1PWJNROEDrHn7pOeKzSFVQdxLk8qOwqSQnnOAMdAMYqe10m5ubYzIhx2B7/AP1q2SjFdkYScpvuytFL5ZJ7nofStC20G9v4DPCI8A4yzgFvoOpx61nyRGNwjAhs8+1XbYS2rrNAzKVOQQcEUSel0EEr2Yx9Nu7eZt6FXUbsk9R6+44rV0rUhLA1ndxLJBIOcAAj3+oq3q0yaloKzxusc6Nho+8meuPbvVCw0ppbaO9gcPER8yjqjeh/nWbfNG7NV7krJ7hEJdH1FEWXeoUOjYwSP8eK9j0rU21DQ4bx/wDWFSG4xyOK84j8N3+rXVq6QskYQCSZxgDnPHrXoOmWP2Wxjslk3rGpLORjPOc1vQcoxlJrSxy4twaUU7tMh8xtkkCjCsQWb19qqTRsCAvG44FXBNH5je5z9amdEwXB+6M108qUXJHDd7GXbYM6p/ek596XUbdZrpGPV2b+eKVI/s0iSN0X5jUgPmz27diu79a4ajfOr9jWOxjS8ahI/wDCrYFXIZiY5OedpIqO+tyiFgD8zD+dQxH/AEzaD8u0isZ3cWWtGatrcvhWzwR0rRSZcK6nBHY1i2L/ACAHtxVguwHB5Fb0mpWvvYfO4+hcvb3envWDx5zCbPlyHDY7e49x1q+HMgIbr/Oovsxk7fSuSu7TszRJSV0RR3nl+ZCzK0sR2kg5z6H8RTBLdDzDDtdW5aKQZR/8D7jmmzaIYZHvo929QPMiA4de5+orThiSRFZMbCMgjvWE5W0RKi73MfQLyxivbi2vIxDDcAqyPyYm7Mp74P44ouYxeSSI5X7ZDwWU8ToP4h74p2tW8UiFjGDtGNwHX/61Z6RJLpW6EyGaA7ip67R/UfypW15i07qxBJGOdx+lbMUtlr9mttdbLbUolxFOBhLjHRXHZv8Aa796p3FiJdPhv7SUzW7nY4P3on9D7H1qoYWjfBBDKc4PGK6YJSTaMndOzNSx0kxAmePEgP3WGMf/AK6bfw+XkwE56hc8gf1AqwmtyiALMv2iMDAY8Ov0P9D+lUr0SPcrcHmJh+7ZehH+PtUyafkymrLyH219lMXcK3KdDuOGH0Yf1zVyOGzmwttO0aOcmG54wfZh/XFUobdrhGEOPNHOzpu+nv7VSlumhI5wR2PalGClqK7Rt6npjW4BJUuo3K6MGz+VY0l438WMr6Cq41iRJDnmM8Mp7/8A16fPGtwgmtm3I36ex96jls9St9UWYdSkjGI2OT1B5BqWWW0ugFnMltMerJ86H6jqPwz9KzrWMk55GDgj0qxIVThRuaoa1K5rInFibf5t6TQuOWjbOD/MfjUP2K2/vipY0YwknIyMccYqHyX/AL6/lVq/ci6Ne1kaNyuRj3q+j54wSD6CopNKZHJAAI61YiibA9utfSp9JM4rdUhBcogOQePWkivZrNzcLI0LAZyD90U5LBpZA5BCqflB/nVuTTbOWSOOS5ZUA3PlM5PYfTv+FZSqUktdS1Gb20I7PUnleSa/toZ5JyCSy7WAHQZH5/U1HcRWV1cpHCZLcEFn3/Oox0GRzyf5VaMemwyZe5aRB1URkVNbyaWUkMkpCs3yiSMkgDpyK56leEUoxTLjTk3dtGPfaVcHTdRlhKTRpGELRtnHfp171pWdzc2tjFbTQiWKNQpSVPu8dj1FV7mG2k0qeW3f704jBSQdC4UcHnFdgi6xagj9zeoOMSDY/wCff9ayhiVduW/3FOn0Rx+pm3ltUktnaKVZo2Ebn/aHRvx74q0NSmsdfRtUt3ZpI/L342uNpyP94EEjnqKt+JvsUujzNdWZtrkBSAVKn7w7jg028sWtrBLu3vFvLa1lWYRSEHC9D9Bhj6dKc8TGXxK39dxKm1sS3VjbjNzp7b0Y5KkcxZ9qoghOhwQeDmt7+zHDm5tVaGT+KKb7rewPp9ahvtGeZBLDC0Uh6wlgT74Pf6HH1qli402uZ3/QHTclorGa95HK4kuSEcjDygdfRj9OhPpz2pLiQ2UhWf5WAyOc59x6g1C+gavJK6xrFtA4LvjPtj1qG207UpAmja1Cot3DfZ7mOQFrcjt7r/s/lWyxtKmk4u6fQj2MpbrU5rxnqTS6IbOz4RpxNKgPBx3x257jGa42yvJ7W9jnjOZVO0KDjGeo+nFdsfA+rRzTNctFcQElQ0Fyo3L+PQEfWuQtrVS8kAZGK5UbhlGwezDv71yVK0ZzconbRjaHKy/Db3niG8EEaGSRjnb2Uep9AK6nUrW10HwBFp9tMkzXd2XkdejbODj2BAH4VRl1uLTtBg07yfs895Hvu5bchmAz8g568dRx9af4ps7iGCwtIEMkVjaqshXkqzfMSVHIzkdaxnVlOa5tFcSilojl5HCfSmRxvcTLFGjPI5wqqMkmpbW1n1C5W3to2llc4Cj/AD0r07RfDdl4R0o3uoSot7IuFcjLFv7qDr+XJ9hRWxCpq276IpIr+GPAMVikV5rMazzk5EJPyRf73qfatDxFrGlWEiHVJY3mjOYLZBv2eh29AfdvyqnjxDqNnM2pXJ0uy2ZXO1JH/E8IO/rXJaX4X028vGQX95rFzn51sY/kH+9K/H41513OTlUe3RFW0G674v1PWLZrV7hltM8RjALfXHX6dKy9J0DVtTm3WljPLEASXC4Ufia7mBdK0j5NM0IanfKceXADMsZ/25T8uR6KKkFjrMlymoeI7yaKKNi6WFnkoAB/E3QD8619ukvdVl57sa0d0cRaymNJ4Hk2c5Gf89R0rC1KSPzGCbTz1A61p6lrllqN4VtrJbSNSwVtxZ3yf4z61ReyCYZ8lmGRgZzW8E1q9LnV7TnjZDfDOjza14itbeC1NyA4aRCcAIDyT7Dr79K29X1X7Fqz2UtqXZZGAWIqrcHqRjjPXFY1lqp0DUXkHmBG+RhG2G45/nUelI19qVxfuWdyxfDHls881tJX1exEHbRblXVg8t/5xj8tH5Vc5wBxz71ct4d8aFR3wfaptadJRB5ahPkLHjGM1L4biN1OYSrNuO1VA6n/ABo5tBSik2yikSozwNt2PnLDrirenW0+mTRSRygwXDbCo/r9Kva54cu9M2PJBIkUhwpcYq1pOlRXCRrc3cUSwAyNuOSBx2FZzqK24JRtdnS2msCOzVXflflznrVmPUQdPupw+MKQMd/WsGSzsI7lrUX7Shl3jZCeB7Z61YF1YRw3NtNFculvbkNtIUNz1GR1q3jL01TRw+xXNcpHxAof7351oW2uKdPmmZx5asqg5/GuN1G6spCDZ28sQzyZJd+fyFWbp/s3hu0j6NcSGUj26CtXWfKl3B0UmdVHq8N6WUMMhSSKdHMIZEZXJ3RBzk9BXM+G4wUup+yLjmtS+kNvbXjn/lnaRoPqa5qtZyqNAqaWhpXF/HcWu8MCA2CfSqltKPtkeOjGsZLjyfC8cpzmWcj8qhttWWOSMlsYYVcWnGRXs0dNHL5YBB7mrMkoR1+YEMM8GsSa9EcEjZ+5Jz+NVRq6HHPPvRS2XkHs00dFJcoB1AxVywvIshWIyehPeuNm1Mckt+RpkWp7MEPn8aVSkpu9yorl2PRri4jRO3Pb1rn4ZjZXjWuf3Mp3xe3qKz7fWAcbpdwxzk1NM6XsG5HHmxtlSO1ZPD21uOeuxryWyTQlW/iGAB2rIt3l0y5jurcAywNtkjI4kX0P1HFb2m3kV1ZqWwsi/K6k4wRUVxbQvqTKCCJYw31Io9jp5Mz5WtUZ+oWNvpt/HdWZb+y9RXegHAH95D7qan1G1tUtY2muA0ZACvj95GO2f769sjkVPcWUsumPZRfNE0m9Vxna/TI9M9KyrCyF+j211uWWLIVT3pWcNCrX+ZUubK5s3TfgxScxyocq/wBD/SnpLJbwMo5iY4ZTyAf6VqRWdzaweRGqzQE5MMpwD9D2I9aiNirl3tGMkWNs9tLxJH/iB2YVTXdEqLKcsai2W4s5GcjmSPo0Z9fce9Z7yLrchDFY7vorE4EvsfRvfvU9tZ39reEwMzBSQGx/Md/pUuo6cZst9n8m5Aydn3JB6+xqZabFcphPbsjlJFZHU4KkYwau6ZHLbuWUgqwwynkH/wCvVzD6jEqX0ZS7jGI5j/y0H91vcev4GhI5I0I2lccHIqXNJWaJatsPlA4ZQAxGCBTraNcFm5xwfaqbzybyrdDwD0xRFcOH2gHcOOT1oik0Q22Xbm9jhjKhCSfwrM/tFv8Ann+tdBHDHLaiTaDkYOR0rP8As0H90flWsVoXGOh1E14xOcqOx4xVYXqAkB2YA8gd6pyRSt0cE98npT7W1YON2D9ecV6jU6julZHOmoq19SzLeyclRhcfWnRQzGPMh+ZuTk5/zimzRyeYEBG1OSQO/p/WliuHLjec9q2o07Tu9iJz00G7Dv2HJ9MDrTbnTrlIDJHFJhRuJweK1oY7fG5rmaLf8rhEzgdf6Ci9t7OWEok97KWIBL459f0rlxlXkb5dEjWirpXOfmsrkWcMUkRUkeYSSBwvP8yK6AXes2Z/c3yqo6K8qsB+dUprHT4/ObE4xFtXcRwev5dKhutX0G1Ubo7uRvRHUVzwrKo7PXTsXKFtUa2pa7ezaBdrdiCRSmNyZHPXtxUGpa1pOooRJ9ogJQoWhIYYI7g44+lc3qfjXT72IWkGj3SqRsVjMdq543EBeazpfEkRBVPCMOR8u5zK+aicYN7ajjfud74fvNS1G2j8i4STaoVyHwwxxyv9eKtalfanayLDBOfOIwIrmLdHJ7Bxggn8a8vfXLuxFvdWdoltPISMrGQ6kdh7Ec810um+Nr6LS5R4iZ4xICY5U5lJ7fuyMY9+K45wfxfgaI6G9k1DUJoUvorrT4lGBcWdydyN/tqfvD3wT7VU1SGbxBOILXV7mLVLUAhHfbDcjH31K8KcZ6fiBTbbxLcCySdGTVbHZiWW0AMsX+9EeRj1FTyyaTJp8N3HcteQzNuRHYrtY8HOOVPbH8+tQuaOrQ2cnFrGqaSl5oOoibYxyu44eJ+oOe6njI565Fc7ewtp1xcWkrKI2GGCHp3/ABzz09K7TWLCHTb2OW8ijjjmUEQxSM7R4IweTycZwORXGXNuYhPdRs0jtOPLMjDnOTz6HjGK6qclJXS3NIaIvQ6da3FzA8c80kRkBkUnJVeMgH1HvUostY1XW7i+RpYCzljcTHy8L0H14A6VPpkv2W8ZraKSGWcsG2DILEfMp7Y/oa3IdVuTiC5soJYIhgiXk/r0Ht09qmrOSV0rsHo7mlosqWBjltLVZXcbJr948KzewXqfy96q+IRrWpalG1siWK5x9pky8p+gx8o9h+daFj4gaUfZLf7IroNyq3O0egC8DH0qK91afYyXNtMVb5TMrhl/Pt9OK8znlz7XYr9TNk0HSY/IutTnvtUAADG4mMcTP3PPOPbity61jTodJNpbLprQkYFtFdJFH+LHr+Rrmbqytr+7Bu75ZlborhSR+JyKv2XhzQkcgwxSSY4WWJSv1BA5rVwk7c9/u0FzJ9TD1NfFOq2ws7O70uy05eFtrO8RFx7nOT+NQeH/AAZ4gtp55GZZFeF0AjuQ43H15rt7ewsbe5KxabYKuMKojUE/jV17x7fYgtljHZRkD8hXfGlXmrQSsZurFaM4Wx+F11GAbpYwT1LSD8a3LrwRIdKgjtHR57dTiPBw3fAJ4zW6dRuC+4MV9l4FSJqcoOSQT6lQa7JYLFzirqKMliYRd02eMXWkhLmQ3ETeYud6Hgg+h/Gp/D+nzX+ptbxlQBE7sDxnaOAPcnFeoavHZX7me8txI8cLENjGcduOtW7Cz06zjWS0t4oXdRlkG0mqp4Sq3ytrQ6JY2Frpanjs1qTIyyF0xwN4I59KseGrWeXVY4487WbO4cbcd/yr1ua2tLhGSaFZFYYIbnNQ2ek6dY7vstpFEW4JAzn862/s+d99CHmCaempj32laZZIPP8AttykgJfJCFu/B5rnhq+i2N4bePQdrSsFE0tyW2g9eMc5/rXZ+IIhJpjOOTFyOeg6f1rzzxLagJHcJxlQwIrKtgoptLtcyp1ua1zrLDxHDd216h0iytvKBjO1SxPYAE9KWzubu5tb9XMTlIgih4w2PTr2IrnbjUZbKytLaSHy5Lgiadgc7sjj8RWna3RtSrg/u5B5chP6GvPp0Yu7t1/A2lJoyLjQ5bycvIq72wPkQKPyFT6ro7XM8caj91AgjUfSuuhijwXI+6M1E9mMjuSOa7vq/vadEYe2djD03ShbafcRgYLlQMfWpdTsRcRzxjH7yRQfoorUEIQlM4+ZRVVwZbmUDOFc1xwoN1b+ZbqaXIH8PK+jW0BXhGLfTNZ9x4PWKFZVGdx4HpXZeXiGFFPO3JqxJCZYVTj5etOT5VZLdlKTZ5/caYzm5jORvCkY9RVNPDxx0Oa7C9scSSPuwwAIHrVYSkD7vaudVGlZFJ2ORuNAlTJ5Aql/Y8oPBJrrrmV8lecVPbWYdAxXjGa0jUla5Wpxf2G4j9eKnhN1FgqSDXWXFmp5VOnXA6VUjt43JG0cH0o9qwbaKweY2QvEyJAQkyjs3ZvoRx9RUH9r3LzRk5BQ8GuhtUt48pIv7qVdkg9vX6g81lXOnLbzyQzkCSI4JH8Q7H8RThNvQTlZDYfEJjDLOzY6ccVsXd4up6VHrVuwW4iYJdFR0boHPsw4PvXLS2sZlLZ4PrV3SL1dJuQ0i+bayKY7iIc74m6/iOCPcVpUi2k+wJpnRWWppPYM8a5liXc8YOcr/eHriiy1O1uLoOygMw+VgcFT/gRXK3MNx4c1xoEmZogRJa3C85RuVYeoI4I+oqK5uJvthlSMRBjuKocqT7ex9KmDaVnquhbafqeg28tvHepKApiYbZCD09CR7eo/KtK4trO42lHVZByrYyP/ANRryp7+8ikJDEoenNW7PxVNa/u5oTJCeqA4x7g9jVba7rsGjR6NDZ2V07QuipOvJU9x6j1FO/4R62RzypjYZ2k5x/8AWrz+TU5n/wBJs5ZLiJTuwPllh+o9PcZFSnxnczQEof3qjkDjPvVXi90KyO2ufC1nLHnYuc9RWafCaCc9NmPvGsPTvGdzHGRMdykcMT0qePxsxDAx71U8YOKORdg5UN1e2bTg4ExXcMEg9q5neP8An6X86m1zXmv3LHA3DlR2rnfPT2o5R8qPS7azlBIIx9a1bax7nk+grFm1aXqoVT+dKbi8d03OwDDcFzj6V2SqVdnocahHpqbssMNvCVZl3Hk85zWPNIoORnrWhZWyS4LnLY7nFWn06EDouW681bqJJXdylSbMyHXjax7F2/8AAlBqKTxDPdSJHmEKpyT5YGeMf1pmo6VGCTHICe+Kow2axxzNnJztGPyrGtOE1qkXCm49RTe3lrZv5MgMc5JbcgY4PHUj0qgfEet5wt0oVeOIUH9Ku3VtdzBY4I8IuAGJxnFQQeGNQupGMfI3EhQO3+FcjnRi9bGlmQSa9qkiFJtRlKONpUAAEHtwKX7brJjMk2t3VnarwpMhy3sq96tQ6PaQ3Mk93cQxjkJCQZOfbHHX1NQXOp6ZDgXEk0kigAhQARjtnrWMqsZteziIpy3WpajBKIXvGZQBHNO2WYZ55PT14q1bx+JUsGaTUrtdpATLBkI7jnuPbNRQ6mbqZZILVbe2ztM0rFiPz6npRcX0upWVyIZpUaJ1XzHbBx3OBwB7CpbknokkPUuWtlDYzC5muJhc9SThd2fp0qWX7LcbsXCiVgCyIQEyPYZye2eDXMyzROPKjSe7kHAYkkE+p9fpwKuiU2lqBO67RwcYAz3x7Dp9c1E4Pe+rFbua0Y86GZYfOlKLvURpuww9Sew/XNYOsSJe6aHhtym6VF8t2J6Ajr6mtXw/qgsb4XOkwlrx1KiWViQB/sr0wB65pNXsntrpkublbibzxI7IpAViM9/vdc5GBzW1N8qsXF9CqJFsJDO07GCZghV/4Hx1HpmrslxLGPn/AHyKc7TzkH+tUodzkRSENHghgRkls8H8v5VYO6KFfMdWVuVwefy9aJaqyV+4TYklmLmYNatPGGGW2LnH4D0rRSWS3CpdXAus4Ky7MNx2P/16o2NyYo96x7yeUeNiCP8APpW/aiLVh5huzFcryBJxgj37H/PNc8bp2+4zb0JbaGydBI8DAMc8qSD/AMCHf2NX473SI5/ICTxjGQSG4+tV5BeWaBrq0GQOZrQlSfc4xn8RVcRNdAXMEcV2MY3EAMPY8Yz9QD713wqyW3zTMmkbr2Vm8ZnRgwA4IlxVYXMiSNGp8xCnOST/ACrKhKu+Lq2ntWU8MjkqfqOePzqeOH5zJbso2t8rL8ufyram/aStyp+mhD91b2LdtI8blZ1V4s5GCcj8f8c1aLWZ6NOvHUKHx+XNU0vbjzAJlRkzyzANU32iEoDJaAA9GQkf41087j8Kkn96/Ezsnq7MlvNOeW1YwSqwKHDbTUccUiQDlTtXBwemKabqOMFreeWJtpwGwwz/ADx+FTjUQU2zmCfI4L5X+fb6GsaeMqU5ty1+RpKkpJJaEJ3DqCPqKBIw7mphLb9I7gwO3RdwZT/n8aid2jQb4Y51A+8nDD6//XFehSx0Kml1fsYSouI24cTW0sRP31Irl7exTU47aGb7kbHzCeyrz/Kuj+0WsjAKzx887xuA/Ks6wt9lzfW6gOJCCCpzhD/kVni6iVmlurFUU9Uchr7tLqF1NvUbSJI0PB2dMD8MGtfQbiO906aOTkNHjnt/+qsjxcBD4ojjIwpTYR0607w27GRoA210Bz747V5MElTaudstbM63TbppLAxuf3iMI2B745/UVdEnOaxs/Z7qGYciZcEAdPf/AD61bErbj1rWniHFtbmEoXLJfEjsMcSAfTiqdhI0gZmXDNIe1WrKPzsZz80p4/SoASly6IOAxxTpVE53t3E1pY0zKYyp9qmt7pc5J69axrd2ld8+uAasfMCMdc4ok01y21SKV07lu8QS3qkHP7vkVnJYsQDjqavxYN1Hk9QQauWQjMZB6oxBrzuRpu5utTAm04gktUiSLDhD9KuX97DgqpHB4rAupd8hIPftXXGCSKSsjfdFuAkUCjDDBI71U1a1htnEcOA6j5vc1JpM0tnZNcufvDCA1nXlwqbnd8yNySayaTehLu9ipMWTGT+VV768FxbRbs+dEPLLA/eTtn3HSoJb5C5Uk56U+1Ki6jkdQ8Wdsin+JT1/GtlDTRahZJamFLJLJGyYIeNuferFrDKcFifceta8thHDeSICHC/dYfxL2/HFXbeOJFA281rSjz7mcqnLsSWdj/a2iLaN811YhngJ5LRdWT8DyPxrNe3EY7EDnFa9rcSWOoRywkB1O9Djv6fQ/wBapXCGSSQlQpJJKjoP/rVosKmmZuq3ZmbJbofmHKZwTjGKjksFPKg/zrXsnS3kdZ4xJE4wyHow/oR69qklshbxrLbuZbZjhWI5H+y3oR+vWs6dNc/LLRjcna6MEW727iRCyOpyGU4xRcxC6xJ5Sxzg8unAb6j19xWm4D5BAqS2s97gDpXQ8Mm7kqrJGGdMaRM8r/eweDSvpjxJuQsOO3Su1tdHD4OT+VWH8NuQTAVKkcoePyq1h4R1b0GqsmeQXolt5CHJ+Y9fWofKPoa6/wAQ+HJijyooyh+ZScMPwrl/Lb0Nc8koytE6IttHoVrpkrzBpwqBBvZSc5A7fjwKukv80kiguxycZ4qZNRgt0ZjBjJ4MhJP5Cmw64o3bYA245O75QPwH+Ncvt76tXYKKWw61N2+TbwXBVT8zAYA/OuitdLurq2EgkbJ5wDurFTX5S4bzolUfwImAf61Y/te8vEMaTP5fdYV2j8655YiTdlZFpDr3TLmIFmlghwCSszgk/gKwbmMWMMbmSaZ3OTGibcHr19jWpvtLMeZdyqoLhWyc/wD1z+Gaq3viC1ttywQ+dcMSI4VBZl92A6fSsXJyet3+QWKSJqIjM1wsVpaY3F3w0gA9Ae5ovfG9tYW32awsprmdh80kpwpz0P5dhxUYsNV1aRZLu2mBP3RMQgH0B5/Sr8eiWNu5OosFdAFKg4H5nn9Kb9mt18g1OMubq81MRzzbhIsmCqDAA9h6CtFvDE91qVxP5LvG0m5UHG4epPp9Mn2ruUfRdMtv37WtnE3Konz3Ev1z90H8PwrBTxdKLp4oUYQ2y7UZjknPIA9OCB/Wq9rJu0FZCskXZvDdr9gQajOtvbQrlUQY3H/Cs4fZrXRpibVZ9zZCv79M4qvZfbdXkmur4s6q25h1+iD6fzrUt7FpHkFyPmlI2qP4QO31qHGS1b0BaswHF4ifIqwCQbVWIbQF/wAT0/Wo5dAmvdQWJivlRAFgDnGe3ua3tTlWR2SzAaO3IVmA6t/dX1NSWVjNZWqy3ePOlkCwwL2Ldye+OuPamm7XW5LeugaVoMgmhOyJYg5jVgOT6/X0qh4nCR3jxR4T7O6q3OTIev6f0rstVkXQ9Pt2xzECVB7tj+pOa4LUZo4niedt0hO52PdmB/xB/GrjdNLq9ydVqP1qKKz1aUFcJJGJUPTGRn8uTWVcRx3nl5doyGDKw7e1X9VuBem2LISfs6qffHH9KdZ6UqQxmZyIHA/eHnaDwH/A4B+tbJOV2tLE81tzR0S2imP2ctEs2N0TNwsv+yfQ1rjRLbU962sz2N6o+aFxuU/TPOB6c4/Wsay0h7gmFyUu1Y+XtPDlfQ+vQ47g1px3sV0jbllttWtiBIoOEkx0YE/db68HoeKakmuWaTFrumQZ1PRLn7PMwVccDfhG9xnjn0OPrToby2eYuwa1lY486AYwf9peh/Cte3vYtftha36bJsEqcY3+6+47r2+lVREunT/ZdQAVZfliulGN3+y/Y49//r1UacmrxfuibV9dxx1FvLIuDDNG3yC4jOB+P90+zY+tQSx2ZkZluDG4OOJNp/8Ar/hSXkUtk4eS2W5hxktEMMB/PHtyPpUFnbebGZ9OeO5jAxJBIOn+H8qum6sHdpPyf+YpWa7FkpOBgzGT0YgA/wD16bHM0Z2XBYKx4YDb/wDW/WmWqJMzpa+baTpy1vIN6H3A6ge44q0jugzcIqgHBZTuU/j2/HFd9OpSktG4vs/+CYOLT1VwuLYS2rRCRWUqSAW2Mfoen86cbHEYyjqMdSNw/MUy4c2oZ41ykkZKoMFWI9R6Yq1HLEcHaYXx96MkClB1YybtdeX9foU+VpGfLZwIQztHhjjIbGauR3Mlmm1cNGegbmory+WFP9Ji86I9WeHcB9WH9ajkuLaa2RLSVo0zkeSyuB+B6fShzpVGlOCfe2/+YJSim0ybzkmmBaFQM8g5Ofx6/wA6bcJpcWqpIfPt5SpTAw6Mfr1qGJ54pCwaK4RBuyR5ZP58Z/KodRSbEM7RMhilDMHGOvXHYiorUof8u5NW6McJP7STv1IvEtmt7eKi6jpUmVDLDeqYyuPSTt+dYMeganZ6q95b2qywMMloZkccj1B6e9XPGoG4p5avGV3bSOn09K5nw9B9tuLVRx5E/wAwB/h61wzozgtWdUZJq52klpJ5Ow7j5YABIx26frin2b74xk5ZTg+/p+dFjNLJJ5u9jGshYKTwPfFTXAZNTDOFCyjHygL/AC754/Gu+jhXGK5l6nPOom9CW1kMXlt0PmOagsN007nnABJp+xo0uXOSI1YgZ6Zo0okWc0p44wOKiEFTk4sG7pepJb27xQyM2ORkUziOSJRuyRlsnNaQjH9ms+PvcCs50YESDlugrbD0/aJzfUmcuWyJY8iTcM53YNWpC1vZ3MqjDNyPrRbwkwlz1BBNW9SwkIj4wBk1niacIvlRtRu1dnnl7ezxzAOeT0B4xVvSC19cpGwOOrEelV9WRZJj7GrCY0HRjNnF1c8IPQVzTdlpuzcuavrcXneTC2IoRtGO5rm7q/a5JCZx3JqKO2lmOSWweau29koIUDLE4AohBLciU0tivZ2UsuXCMwXlmAzitO3KgYBFadziw09LCE4eQbpWHBPtVOK2x/DkV0UKbnd9Ohz1J9ySO286GSWMlpIhvK+q9/y61PYujIc4O04z61Fbu1ldJKgyFPKnuO4/EUtzENOv3EZzbygPEfUH/Dp+FEqbhNdmCfNH0L11GHtt6Ab4zuXHeopAjhJ05VhzUcV1v4PFOsgEMtuTkKcqPVTXXBNP1Mm00I8IPK4z7U2KR7N2GzfFKMSRE8MP6Edc1dhjBJQ9V6Z71PJah06cjoR2p1qakrhBtM5q5IDsYS3l5+Xf1x7+9T2N4EIDU+S2ZLkpjluQD3pptVPK8VNO8l5lPQ6Oz1i2hA3sQPcVr22t6fJj/SIs+5xXC7JEGByPQ1BJGx/hINXODaEptHR+Mr2IWryRyI7EYBUg5ry7dJ/froryJ3jIHpWP9lf0rlnSdzohU0N26ebzDiVycc5PWn2Fje34MgdYbcHaZpeBn0HqfYU210q/v7lGG3YpzucYU/41qX+nWFxMH1nV57hkGFt7VQqr7DPA/CvLnUitIs6LF21ttO0+QRkT39yP4F+bn6DgfiT9Kv3Vtrd/GFQ2+lWw6gfPIR/Ifhis7TZpY4Gg8PWa20ZOTLNIZGP58VJLpV4AX1nWpCpGQiAH8q423e90VZIq3dp4b0va2sXYuJs8KxLFv+Ar/Uirdh4giKyNYaSbO0RSTPcYhB+ij5m/OqsVrLHGP7BgggKklry4Adk99x4H4UyG1ttNeW6uZJNUviCWluCQD9FPb64pqScdXdisOXWWlszd3VxOYGPylF+zRP8AT+Nx7kgfyrIudaa7tTLGohtFY8AYzjv+P9KcYZvEF05vJC0QIBI4Ax/CPQdqs6jo6SWvlqNsK8BR3Nbxo3euhLaSOQ062uNX1MXmGWFW+UnvXe2ejrcgTL8sKcu47n2+lZWh6dJqN/HYwARwIcSOP5D6V315FBaxx6fbACNOCRzk1U5KMrvZaWFa60KdlFHboroiiJTtRPXI6/59ayNa1LYTa2nMrcyzD/lmPQe59au6s7Q2x2v5aqPmcckD29z0rN+wjTNHkW4XdeTkSODzsQc/n2/E1lNuctNELZWLWiJBZSIzqu91JAPOP/r9Ko3WptJqYuAGMUB8mMAdXP8AnFZlnqzX9zP9mf8AeJIPLX65H6V0WmaCbW2f7WRgP5jMx6VU5cr5F0FGN9WUPEOp3ElshnLON2Qp4wo/ziueltJdYTgEOJd7flmui1uUawdkEWyKVkSMnqwz/hzV3SLOK31a8jIG1EU4+tOir2b7ik1fQwoYwdTtInA2PFhSe+Tx+prodOjjk028sXUFrYGaNTxuhcYZfwOfxArAvj5UEMwB3xBQvty3+FbV/KbPUIbxTiIsBJx1il5/IOD+dawna9iGitaiaKFYbtwI4pRA84+9A3WOT3HPX0JB7Vs3iT6ti6gRI9Xsz5bKBlZMfwn1VhyPrVK9VbLVijKPst7H9lbPTB5jP4HI/AUunXklhcwtIjNJENjD/nqg4K/7ynkeo4rWCUb8wnd2sRxXEV1A89pbGKVm/e2ROAXH8UbfwuPTv6GrkerxXMYtNRQssq5jlcYD/X0I9v0o1eFY5Dq9igntpgGuYV/5aL/fX0YVUcRxRrMB9s0yc7zxll/2vqO+P5005wVl/wAOJpMnkMum5RiZLZvlWQnJj+vtUsljbXBWeM+XLjKzQnaf061CS0KRR+Ys1nIwMb9TjrtPqPepYgsQY2wBRjkqDjB/pXfR5b8klpbZmU291oQXDzZC6jCLiNTlbqH5ZIz6nH8+aJLyWKRQ0iyIw+WR127vq3/18e/arUUyygsp6HBU8EfWq09u8eWtiY2ccqRmJvXI7E+oqK+BhK0oMIVWtGhDZtcTEWiMsaqWaNznb647jPtVobXjznY391u/0Pf9KyHumhMcRRoZQ3yxnJ2+6MOo9v0rTF9I8O68hEmOPOj4P4jv+OD71jRlPDylH8SppTSYB2GHjcjtuBxS3NhaXKLJNbr5h6yRfI36daadscgFvOodhnay4z+B6/rS/b8FYrmLyAeA45Un/P8A+quupONVKU49d0ZxTjez+TGpY3MQK2l15qMMlJRkn+v5Zp0gc2Em3bFdFSoXOAD/ALx4wfepDtBC71LddoPI/CiYvNCyMc5GASORWroNwag7p/1/WwlNXV1Zow/EdtLNZpKyMMRAMRyAceorkfDVs4vL1llMaxoOfUk//rrtYormWySCBmLYKfKfvfUVg6kJ9EsyL20tjNNOEXjaQo9SvcH1rz8RJumtrnVT3aOktoYrJIo8/eXkGlugbiz4P7yI/ex6f5B/Cuc1LX7e3khEwmjlC4UAhlH1zzn3rqdAvopdKa8kCtFMSitjO2QdAfYj+VdlLEqVFc2+xlOk1O6IrWX7RpsjcF5DtJHr3p5Pl6ZHCv3ieaz4LpbC6aNm/dSEsoxjB/zx+FaD4e/CjoVBArBck4899f8AIdmnaxoXLi30qBO5GTVTKpalz1J4qrr+orDJEhOFQY+tQXWo7LaFQDkjJq8PXjGnYJUnKVzYtbgyDylHLDj2qlquqsLZpGUgkYOaqaVcNLcvICRtGAB3JqPxTFK4gtV4aQ72A/z61z1JOrWXKbxSgtTHsQdQ1AFsmJTuY1Dq0rXt+ZT/AKpPlQe1akcKabZi3XmVxmRvSqV5EpiKgcirhQTvJ9NiJ1tbISF4wmAMcd639EsIUhl1O6/1MQ+Qf3mrmtJtpb2/jtwD8x5PoK6XXL5EEWn2/wAkEI+m41M0pNQW/UhO2rMq5meaZ5X+8xz9KW3uMEA8g8U2QAjj8akNittZLPIzeY5+VR6V0R/dNJGb97c0BCsieuaWa2NzpjxdZbYmSPPdT1H4dagtphsFWjI33ozhsYzXTVXtIba9CYPlZixkYBzg1MZWhkjmB+6dre4P+FLLp0sUgjK5LLvBXuDUflumUYEqRgg1nTmpRXf9RyjZmtvB2yA8rwfcVbjuRjDcgjqKybAtJDtP3lO1gasb2hcoenVTXWmmlfZmTutF0J7m3W5A2n51OVYdqh+z+cBIPkk6MOuaEuDnjg1PbyYmO4fK3J9j/wDXqXSSd0Up3VmVpLdk6DNQ+WD1HNbDxq/Q/lUEttjJ6fSrvbcm3YypbZShHGSKzf7NPpWzJkHB6+1L83oKHFS1GnYxW8jS7MR3uoKhJ4SLMjHPoOlaFjptnFHHc3cAsYXOY5b9980v+5EOPzrnEb7Pr6SxhQ8YJXI3YIHvRAzX9+l3du807nJd2JNfKqlc9RysjUvvGM0++LR4XhhT5TczYMjf7qj5UH0596p6Zbalf6gtzcq1xEpyY5ZCFb6kdq2bGxt2njQxLt+9j3rqJ7eKFY4441VQoPA9a6VRhGKdtzH2j1OcuLm5MCoDG00THasa7YYv91e5/wBo5rI+z3KfaZJC8krR5yTnP+Tiumuo1W/jwANwwakSCMxyEqMkgVDoxi2kL2jsmctZ3UtjB5bn52HOO1aH20yW7W+cSD5g3tVk2kLzrujB6nmrlpawrbTkRjIXg1nOTjZlp3JvC9sscZKDaM5Zh3/+vWtrAGnW32tyFJ4VT3qLS0VPs8ajC4BwO5NR+N182SJHyVXAAz61zxfO3J9C27I5w6lLqbtGDiFTvkbuzD7o+gPOKej3WrPFM+SXjaBlHpjr+JqDQYk8ub5R1zXS6NEkYXaoHy/0olNp3JSuc54c8Ptps5IwWB3FiPStLxHdSSm309DtNwcMvcKOpP8AKtrTAGumY8ldxH4CuWsx5niWUuSxTKrnsM1HO5NthJ20OgTTVk1W0igX5LeLex9Wbj9BmnR2HlX9wWcbpCC2Ow9K27NFjgLqMMxOTXOWc8kur36yMWVWUAH8aunN8yXmDjZGBdR+bBcQj70dwEP/AH05/ka2bm3S/wBJ03cCfNg8hyO2eF/JgPzqssa+df8AA/4/Uq7p43eHp85/dwuy89CpyP1rpjvfyMis80uueGIoZBtls1ML8chh3/AgH86u2LxX2m29wcM90hV0YcLcJwyn03KPzANR+H/3niTU0blJSrMvYk9f5motJjVE8SW6jEVvcJLEM/db1FU3eKfcFo2JY3EukTCJnaTTrhiYnPWJj1VqjuR/Ydy7KCdOuD+8Uf8ALFj/ABD2NacsEcgvYHQGMxh9p9SvX9BWZpLtc2MaTnzFcmJg3OV9K73DlUY93oYp3ux0bx2rhCPMiYFwqnpn+JR3B9Pyq1GiQuGd/wDRWG5ZkOfL/wAVP6d/WuZsGYH7zfuZ9kfP3Vz0rdRQNYWMf6vZu2Z4yevFOEua1+rsDevyLLkG8O91JbhXRcYX3p01yvzCQhQRiNugOP6mqtsojmvI1yFhJEfP3QR0qS4jRLhIgo8uRTuQ8g1s7xdr7ErX5jriNLqzTcoYFxjI6YqMCWEhoyXVhyp7/wD1x6/zpmjEmO6iJJSKXCA9hVrAx9GohGOIvJ6PuKb9laIpK3UHKrIq8lW6r+Pb6in20kiR5uVgmjzgKeGH17H8fzqC8URRefH8squBkHqD61NdRIsTEDB3Afgawq0370W9VrddfkXB6q3UT7LHMQi7WA5CkY2/TuPw4q5pto80jW+wyPjIIbp/iPyqtHEpeLrnd1B5rotLJTRZ514lLbS+Occd66Od07Re7JSUpWXQo2Yi0maWxjVHmkfd5uOg7qPcEfrXnPj+3nTUreJojGkbBxn+Ik131iitrZYjlYSwOe+a5XxpGG1LLZZty8k5NYOmpNx6q5tGVjm/F1gJLq0deGYbWA/Suv8ADVuLfwZJb7dz7y2PWuf8ZgRzR7eMKpH1zXV+FyX0VS3JzU4Smp07S7lVJtMo6rppGlRSiLe6t5gB/Mj8av2ESX14byMkxmNdua2bVVfCOAyh3UA+lZ3hlFSzuEUYVJ3VR6DNYypxTWnQXO2c94gsWvtSWJTwrDNXzpiyONzfKq4HNL97U5M8/MarxyP5zjccZNXKMYJJI0pu7Zt6VpUUZBXHzHccVWvIvtGoS3DYYKdq/hWxpSKNNkcD5gvX8KpwIrPGCONufxoou15Cm7uxzt9YynL4+Y8mqcdrLIMshz6V2E0SYPyioLaCPeflHFa/WOWVrGLpablTSdOXTbWS6YYfGS3pXM3Ny97cvI46n5R6Cu+1uNY9EjCjAYjd71x5iTzPujrSoLmbm9wnokhNNthcSDf/AKtPmYmkvrk3E5Y/dHCj0Fa6wpHo5ZFwWbB+lY0yj5uK2UbycuxDdkhkR/umr0M38LdexrKjPz47Vq6SiyahGrDI610QlZNkNamk/m2otZJACATjsQO4+hHP1qneyx3N0ZMBFHAXGP8AJrR19ikMKqcAuKz5o18vpWFCmpSbNJzaSRECkM6uCNrDa39P8KmmKypxgleQayZ1CscZHPrVzQ1Et+qSZZcZwTXRGVrxM2rtEn8IYdDTvNOPcVPcxqkrhRgBscVAANxreMm4oyas2LHeMh4PPcGraXSTJycN3BrOkRd/SpYlHpRbmeo+ZovJbLMc44qX+z09KfY8xtnsakLHcealOxdrn//Z;" vertex="1" parent="WIyWlLk6GJQsqaUBKTNV-1">
          <mxGeometry x="180" y="880" width="210" height="140" as="geometry" />
        </mxCell>
        <mxCell id="SdMWiJtV8BzjuywiQybZ-3" value="&lt;h1&gt;&lt;span style=&quot;background-color: initial;&quot;&gt;&lt;font style=&quot;font-size: 19px;&quot;&gt;LOOP OVER SCENE X 8100&lt;/font&gt;&lt;/span&gt;&lt;/h1&gt;" style="rounded=0;whiteSpace=wrap;html=1;fillColor=#dae8fc;strokeColor=#6c8ebf;" parent="WIyWlLk6GJQsqaUBKTNV-1" vertex="1">
          <mxGeometry x="296" y="510" width="330" height="240" as="geometry" />
        </mxCell>
        <mxCell id="zFf3xXaIBMx__n7ub1SH-6" value="" style="edgeStyle=orthogonalEdgeStyle;rounded=0;orthogonalLoop=1;jettySize=auto;html=1;entryX=0.5;entryY=0;entryDx=0;entryDy=0;" edge="1" parent="WIyWlLk6GJQsqaUBKTNV-1" source="WIyWlLk6GJQsqaUBKTNV-3" target="zFf3xXaIBMx__n7ub1SH-2">
          <mxGeometry relative="1" as="geometry" />
        </mxCell>
        <mxCell id="WIyWlLk6GJQsqaUBKTNV-3" value="Grab Sentinel-2 scene name from AWS SQS" style="rounded=1;whiteSpace=wrap;html=1;fontSize=12;glass=0;strokeWidth=1;shadow=0;" parent="WIyWlLk6GJQsqaUBKTNV-1" vertex="1">
          <mxGeometry x="321" y="100" width="120" height="50" as="geometry" />
        </mxCell>
        <mxCell id="SdMWiJtV8BzjuywiQybZ-9" value="" style="edgeStyle=orthogonalEdgeStyle;rounded=0;orthogonalLoop=1;jettySize=auto;html=1;" parent="WIyWlLk6GJQsqaUBKTNV-1" source="WIyWlLk6GJQsqaUBKTNV-6" target="SdMWiJtV8BzjuywiQybZ-8" edge="1">
          <mxGeometry relative="1" as="geometry" />
        </mxCell>
        <mxCell id="zFf3xXaIBMx__n7ub1SH-13" value="No" style="edgeLabel;html=1;align=center;verticalAlign=middle;resizable=0;points=[];" vertex="1" connectable="0" parent="SdMWiJtV8BzjuywiQybZ-9">
          <mxGeometry x="0.3967" y="1" relative="1" as="geometry">
            <mxPoint as="offset" />
          </mxGeometry>
        </mxCell>
        <mxCell id="WIyWlLk6GJQsqaUBKTNV-6" value="Blue band min=0 ?" style="rhombus;whiteSpace=wrap;html=1;shadow=0;fontFamily=Helvetica;fontSize=12;align=center;strokeWidth=1;spacing=6;spacingTop=-4;" parent="WIyWlLk6GJQsqaUBKTNV-1" vertex="1">
          <mxGeometry x="331" y="540" width="100" height="80" as="geometry" />
        </mxCell>
        <mxCell id="WIyWlLk6GJQsqaUBKTNV-9" value="Yes" style="edgeStyle=orthogonalEdgeStyle;rounded=0;html=1;jettySize=auto;orthogonalLoop=1;fontSize=11;endArrow=block;endFill=0;endSize=8;strokeWidth=1;shadow=0;labelBackgroundColor=none;" parent="WIyWlLk6GJQsqaUBKTNV-1" edge="1">
          <mxGeometry y="10" relative="1" as="geometry">
            <mxPoint as="offset" />
            <mxPoint x="431" y="580" as="sourcePoint" />
            <mxPoint x="481" y="580.04" as="targetPoint" />
          </mxGeometry>
        </mxCell>
        <mxCell id="SdMWiJtV8BzjuywiQybZ-2" value="" style="edgeStyle=orthogonalEdgeStyle;rounded=0;orthogonalLoop=1;jettySize=auto;html=1;" parent="WIyWlLk6GJQsqaUBKTNV-1" source="WIyWlLk6GJQsqaUBKTNV-7" target="WIyWlLk6GJQsqaUBKTNV-6" edge="1">
          <mxGeometry relative="1" as="geometry" />
        </mxCell>
        <mxCell id="WIyWlLk6GJQsqaUBKTNV-7" value="Unzip folder" style="rounded=1;whiteSpace=wrap;html=1;fontSize=12;glass=0;strokeWidth=1;shadow=0;" parent="WIyWlLk6GJQsqaUBKTNV-1" vertex="1">
          <mxGeometry x="321" y="440" width="120" height="30" as="geometry" />
        </mxCell>
        <mxCell id="SdMWiJtV8BzjuywiQybZ-11" value="" style="edgeStyle=orthogonalEdgeStyle;rounded=0;orthogonalLoop=1;jettySize=auto;html=1;" parent="WIyWlLk6GJQsqaUBKTNV-1" source="SdMWiJtV8BzjuywiQybZ-8" edge="1">
          <mxGeometry relative="1" as="geometry">
            <mxPoint x="381" y="780" as="targetPoint" />
          </mxGeometry>
        </mxCell>
        <mxCell id="SdMWiJtV8BzjuywiQybZ-8" value="Create GeoTIFFs,&lt;div&gt;RGB PNGs, GeoJSONs&lt;/div&gt;" style="rounded=1;whiteSpace=wrap;html=1;" parent="WIyWlLk6GJQsqaUBKTNV-1" vertex="1">
          <mxGeometry x="321" y="670" width="120" height="50" as="geometry" />
        </mxCell>
        <mxCell id="SdMWiJtV8BzjuywiQybZ-13" value="" style="edgeStyle=orthogonalEdgeStyle;rounded=0;orthogonalLoop=1;jettySize=auto;html=1;" parent="WIyWlLk6GJQsqaUBKTNV-1" source="SdMWiJtV8BzjuywiQybZ-10" target="SdMWiJtV8BzjuywiQybZ-12" edge="1">
          <mxGeometry relative="1" as="geometry" />
        </mxCell>
        <mxCell id="SdMWiJtV8BzjuywiQybZ-10" value="Generate vector embeddings" style="whiteSpace=wrap;html=1;rounded=1;" parent="WIyWlLk6GJQsqaUBKTNV-1" vertex="1">
          <mxGeometry x="321" y="910" width="120" height="40" as="geometry" />
        </mxCell>
        <mxCell id="SdMWiJtV8BzjuywiQybZ-12" value="TODO: Upsert embeddings into Pinecone" style="whiteSpace=wrap;html=1;rounded=1;fillColor=#f8cecc;strokeColor=#b85450;" parent="WIyWlLk6GJQsqaUBKTNV-1" vertex="1">
          <mxGeometry x="241" y="1010" width="120" height="60" as="geometry" />
        </mxCell>
        <mxCell id="SdMWiJtV8BzjuywiQybZ-14" value="TODO: Upload RGB PNGs + GeoJSONs to S3" style="whiteSpace=wrap;html=1;rounded=1;fillColor=#f8cecc;strokeColor=#b85450;" parent="WIyWlLk6GJQsqaUBKTNV-1" vertex="1">
          <mxGeometry x="401" y="1010" width="120" height="60" as="geometry" />
        </mxCell>
        <mxCell id="SdMWiJtV8BzjuywiQybZ-15" value="" style="edgeStyle=orthogonalEdgeStyle;rounded=0;orthogonalLoop=1;jettySize=auto;html=1;exitX=0.5;exitY=1;exitDx=0;exitDy=0;entryX=0.5;entryY=0;entryDx=0;entryDy=0;" parent="WIyWlLk6GJQsqaUBKTNV-1" source="SdMWiJtV8BzjuywiQybZ-10" target="SdMWiJtV8BzjuywiQybZ-14" edge="1">
          <mxGeometry relative="1" as="geometry">
            <mxPoint x="390" y="1000" as="sourcePoint" />
            <mxPoint x="310" y="1050" as="targetPoint" />
          </mxGeometry>
        </mxCell>
        <mxCell id="SdMWiJtV8BzjuywiQybZ-16" value="&lt;h1&gt;&lt;b&gt;Sentinel-2&amp;nbsp;&amp;nbsp;&lt;span style=&quot;white-space: pre;&quot;&gt;&#x9;&lt;span style=&quot;white-space: pre;&quot;&gt;&#x9;&lt;/span&gt;&lt;/span&gt;Pinecone&lt;br&gt;&lt;/b&gt;&lt;b&gt;Imagery Pipeline&lt;/b&gt;&lt;/h1&gt;" style="text;strokeColor=none;align=center;fillColor=none;html=1;verticalAlign=middle;whiteSpace=wrap;rounded=0;" parent="WIyWlLk6GJQsqaUBKTNV-1" vertex="1">
          <mxGeometry x="239" y="40" width="350" height="30" as="geometry" />
        </mxCell>
        <mxCell id="zFf3xXaIBMx__n7ub1SH-1" value="" style="edgeStyle=orthogonalEdgeStyle;rounded=0;orthogonalLoop=1;jettySize=auto;html=1;" edge="1" parent="WIyWlLk6GJQsqaUBKTNV-1" source="zFf3xXaIBMx__n7ub1SH-0" target="WIyWlLk6GJQsqaUBKTNV-7">
          <mxGeometry relative="1" as="geometry" />
        </mxCell>
        <mxCell id="zFf3xXaIBMx__n7ub1SH-0" value="Grab Scene from AWS Open Data" style="rounded=1;whiteSpace=wrap;html=1;fontSize=12;glass=0;strokeWidth=1;shadow=0;" vertex="1" parent="WIyWlLk6GJQsqaUBKTNV-1">
          <mxGeometry x="321" y="370" width="120" height="40" as="geometry" />
        </mxCell>
        <mxCell id="zFf3xXaIBMx__n7ub1SH-21" value="" style="edgeStyle=orthogonalEdgeStyle;rounded=0;orthogonalLoop=1;jettySize=auto;html=1;" edge="1" parent="WIyWlLk6GJQsqaUBKTNV-1" source="zFf3xXaIBMx__n7ub1SH-2" target="zFf3xXaIBMx__n7ub1SH-4">
          <mxGeometry relative="1" as="geometry" />
        </mxCell>
        <mxCell id="zFf3xXaIBMx__n7ub1SH-2" value="TODO: Check Metadata for Cloud Cover %" style="rounded=1;whiteSpace=wrap;html=1;fontSize=12;glass=0;strokeWidth=1;shadow=0;fillColor=#f8cecc;strokeColor=#b85450;" vertex="1" parent="WIyWlLk6GJQsqaUBKTNV-1">
          <mxGeometry x="321" y="180" width="120" height="50" as="geometry" />
        </mxCell>
        <mxCell id="zFf3xXaIBMx__n7ub1SH-8" value="" style="edgeStyle=orthogonalEdgeStyle;rounded=0;orthogonalLoop=1;jettySize=auto;html=1;" edge="1" parent="WIyWlLk6GJQsqaUBKTNV-1" source="zFf3xXaIBMx__n7ub1SH-4" target="zFf3xXaIBMx__n7ub1SH-0">
          <mxGeometry relative="1" as="geometry" />
        </mxCell>
        <mxCell id="zFf3xXaIBMx__n7ub1SH-9" value="Yes" style="edgeLabel;html=1;align=center;verticalAlign=middle;resizable=0;points=[];" vertex="1" connectable="0" parent="zFf3xXaIBMx__n7ub1SH-8">
          <mxGeometry x="-0.4354" y="-3" relative="1" as="geometry">
            <mxPoint as="offset" />
          </mxGeometry>
        </mxCell>
        <mxCell id="zFf3xXaIBMx__n7ub1SH-4" value="&amp;lt; 20% ?&lt;div&gt;Cloud&lt;/div&gt;" style="rhombus;whiteSpace=wrap;html=1;rounded=1;glass=0;strokeWidth=1;shadow=0;fillColor=#f8cecc;strokeColor=#b85450;" vertex="1" parent="WIyWlLk6GJQsqaUBKTNV-1">
          <mxGeometry x="340" y="250" width="80" height="80" as="geometry" />
        </mxCell>
        <mxCell id="zFf3xXaIBMx__n7ub1SH-10" value="" style="edgeStyle=orthogonalEdgeStyle;rounded=0;orthogonalLoop=1;jettySize=auto;html=1;exitX=1;exitY=0.5;exitDx=0;exitDy=0;entryX=1;entryY=0.5;entryDx=0;entryDy=0;" edge="1" parent="WIyWlLk6GJQsqaUBKTNV-1" source="zFf3xXaIBMx__n7ub1SH-4" target="WIyWlLk6GJQsqaUBKTNV-3">
          <mxGeometry relative="1" as="geometry">
            <mxPoint x="391" y="420" as="sourcePoint" />
            <mxPoint x="391" y="470" as="targetPoint" />
          </mxGeometry>
        </mxCell>
        <mxCell id="zFf3xXaIBMx__n7ub1SH-11" value="No" style="edgeLabel;html=1;align=center;verticalAlign=middle;resizable=0;points=[];" vertex="1" connectable="0" parent="zFf3xXaIBMx__n7ub1SH-10">
          <mxGeometry x="0.1105" y="-1" relative="1" as="geometry">
            <mxPoint as="offset" />
          </mxGeometry>
        </mxCell>
        <mxCell id="zFf3xXaIBMx__n7ub1SH-12" value="Skip tile" style="ellipse;whiteSpace=wrap;html=1;" vertex="1" parent="WIyWlLk6GJQsqaUBKTNV-1">
          <mxGeometry x="480" y="552.5" width="90" height="55" as="geometry" />
        </mxCell>
        <mxCell id="zFf3xXaIBMx__n7ub1SH-17" value="" style="edgeStyle=orthogonalEdgeStyle;rounded=0;orthogonalLoop=1;jettySize=auto;html=1;" edge="1" parent="WIyWlLk6GJQsqaUBKTNV-1" source="zFf3xXaIBMx__n7ub1SH-14" target="zFf3xXaIBMx__n7ub1SH-16">
          <mxGeometry relative="1" as="geometry" />
        </mxCell>
        <mxCell id="zFf3xXaIBMx__n7ub1SH-14" value="Calculate mean, standard deviation&amp;nbsp;" style="whiteSpace=wrap;html=1;rounded=1;" vertex="1" parent="WIyWlLk6GJQsqaUBKTNV-1">
          <mxGeometry x="321" y="770" width="120" height="40" as="geometry" />
        </mxCell>
        <mxCell id="zFf3xXaIBMx__n7ub1SH-18" value="" style="edgeStyle=orthogonalEdgeStyle;rounded=0;orthogonalLoop=1;jettySize=auto;html=1;" edge="1" parent="WIyWlLk6GJQsqaUBKTNV-1" source="zFf3xXaIBMx__n7ub1SH-16" target="SdMWiJtV8BzjuywiQybZ-10">
          <mxGeometry relative="1" as="geometry" />
        </mxCell>
        <mxCell id="zFf3xXaIBMx__n7ub1SH-16" value="Update model config file for normalization" style="whiteSpace=wrap;html=1;rounded=1;" vertex="1" parent="WIyWlLk6GJQsqaUBKTNV-1">
          <mxGeometry x="321" y="840" width="120" height="40" as="geometry" />
        </mxCell>
        <mxCell id="zFf3xXaIBMx__n7ub1SH-20" value="" style="shape=flexArrow;endArrow=classic;html=1;rounded=0;fillColor=default;" edge="1" parent="WIyWlLk6GJQsqaUBKTNV-1">
          <mxGeometry width="50" height="50" relative="1" as="geometry">
            <mxPoint x="390" y="40" as="sourcePoint" />
            <mxPoint x="450" y="40" as="targetPoint" />
          </mxGeometry>
        </mxCell>
      </root>
    </mxGraphModel>
  </diagram>
</mxfile>
